<svg width="134.25" height="102" overflow="visible" version="1" viewBox="0 0 612.092 560.54" xmlns="http://www.w3.org/2000/svg"><g clip-rule="evenodd" fill-rule="evenodd"><path d="M333.384 121.34l-.468 429.18-114.99-37.398V8.662l146.78 38.806c93.954 25.251 151.45 74.336 150.52 160.36-.934 100.05-47.212 140.26-137.43 114.07v-197.3c0-23.845-44.407-25.241-44.407-3.266z" fill="#de0029"/><path d="M165.104 429.9l-54.225 18.238c-35.063 12.159-64.976-16.359-32.722-28.054l26.175-9.344L5.7 379.409c-30.386 10.29-58.902 32.263-57.028 63.122 1.87 31.32 73.387 38.805 128.55 47.688 51.416 8.411 98.162 3.737 140.7-11.224v-32.262L165.099 429.9zm168.75 120.63l100.5-35.068-101.44-32.255v64.98l.934 2.342z" fill="#f3c202"/><path d="M601.234 456.56l1.868-.47c43.941-15.424 62.64-36.939 57.968-57.035-7.48-33.66-61.237-51.897-143.98-57.977-59.364-4.205-117.79 8.882-174.82 28.516l-9.35 3.277 102.37 31.79 59.833-20.105c62.639-11.685 87.886 8.883 27.582 28.054l-29.918 10.28 108.45 33.67zm-383.31-148.67l-45.347 15.423 45.347 14.027v-29.45z" fill="#326db3"/><path d="M434.354 515.46l166.88-58.902-108.45-33.67-159.87 54.7v5.617l101.44 32.255zm-216.43-103.32l-52.823 17.766 52.823 16.831V412.14zm114.99 27.592v-66.859l102.37 31.791-102.37 35.068zm-228.59-28.988l113.59-40.675v-32.727l-45.346-14.027-164.54 55.636c-.468 0-1.402.462-2.336.462l98.632 31.331z" fill="#00aa9e"/></g></svg>