<?xml version="1.0" encoding="UTF-8"?>
<svg enable-background="new 0 0 1000 1000" version="1.1" viewBox="0 0 1000 1000" xml:space="preserve" xmlns="http://www.w3.org/2000/svg"><rect width="100%" height="100%" fill="none"/>
<metadata> Svg Vector Icons : http://www.onlinewebfonts.com/icon </metadata>
<g class="currentLayer" style=""><title>Layer 1</title><g class="selected" fill="#d50b0b"><path d="m435.3 195.5c0.6 0 1.2-0.6 1.2-0.6s-0.6 0-1.2 0.6z"/><path d="m437.7 194.3z"/><path d="m435.3 195.5c-0.6 0.6-1.8 1.2-3.1 1.8 1.2-1.2 2.5-1.8 3.1-1.8z"/><path d="m500 10c-270.6 0-490 219.4-490 490s219.4 490 490 490 490-219.4 490-490-219.4-490-490-490zm-272.4 519.6c19.1-2.5 37.6 7.4 56.1 1.2s36.4-14.2 54.2-21.6c29.6-12.3 59.8-28.4 76.4-56.7-29-8.6-59.8 9.2-87.5-4.3-24.7-11.7-39.4-39.4-43.8-65.3-7.4-43.8-22.8-120.8 3.7-159.6 19.1-28.4 51.8-16.6 55.5 15.4 3.1 25.9-4.9 51.2-4.3 77 1.8 54.9 33.9 83.8 89.4 76.4 62.3-9.2 123.9-11.1 186.8-11.7 65.9-0.6 73.3-48.1 59.8-102.9-13.6-54.2-44.4-76.4-99.2-78.9-50.5-2.5-109.1-18.5-156.6 5.5-21.6 9.9-69.6 22.8-77.7-12.3-9.9-43.1 62.9-46.8 88.1-49.9 78.3-9.2 180-12.3 252.7 23.4 64.7 32 76.4 146.1 62.9 208.3-12.9 58.6-78.9 68.4-129.4 70.3-27.7 1.2-56.1-0.6-83.8 1.2-39.4 2.5-31.4-3.1-57.3 30.2-48.7 62.9-113.4 86.9-186.1 109.7-25.3 8.6-82.6 25.9-95.5-10.5-8.2-23.3 14-42.4 35.6-44.9zm196-262.6c-0.6 0-0.6-0.6-1.2-0.6 0.6 0 1.2 0.6 1.2 0.6 29.6 8.6 69-4.3 100.5-1.2 22.8 1.8 53.6-9.2 74.6 1.2 16 8 21.6 31.4 9.9 45-16 18.5-41.9 2.5-61.6 3.1-29 1.8-62.3-2.5-90.6 4.3-18.5 4.3-42.5 13.6-59.8 0.6-24.8-18.5-4.5-65.3 27-53zm-13-4.9c1.2 0.6 3.7 1.2 6.2 2.5-2.5-1.3-4.3-1.9-6.2-2.5zm88.2 487.5c-27.1 4.3-51.8 32.1-74 46.8-41.3 27.7-92.5 58.6-142.4 66.6-46.8 8-81.4-45-32.1-70.3 49.9-25.9 109.1-21 157.2-56.1 37.6-45 98.6-61.6 143.6-97.4 22.8-18.5 43.8-45 73.3-53.6 14.2-4.3 29 3.7 27.7 20.3-0.6 18.5-21 33.3-33.3 43.1-27.7 22.2-66.6 42.5-88.1 71.5-15.9 20.5-5.4 24.8-31.9 29.1zm155.3 97.4c0.6 0 1.2 0 1.8-0.6h1.2c0.6 0 1.8-0.6 2.5-0.6-0.6 0-1.8 0.6-2.5 0.6h-1.2c-0.6 0.6-1.2 0.6-1.8 0.6zm19.7-4.3c1.9-0.6 1.9-0.6 0 0zm-20.9 4.9c-33.3 8.6-69 25.9-99.8 0.6-16-12.9-49.3-55.5-38.8-78.9 11.7-26.5 64.7 14.8 87.5 14.2 30.8-0.6 59.8-14.8 83.8-33.3 48.1-37 94.3-110.9 50.5-168.3-21.6-28.4-45-6.2-69-16.6-20.3-8.6-11.7-44.4-38.8-49.3-65.3-11.1-136.8 83.2-182.4 120.2-56.1 45-130.7 92.5-203.4 104.8-30.8 4.9-75.2-25.3-39.4-52.4 27.7-21 65.3-22.2 97.4-34.5 83.2-32.1 165.8-91.2 236.1-146.7-30.2-20.3 0-48.7 24.7-52.4 30.8-4.3 61 5.5 91.8 6.2 59.2 1.8 109.1 45 136.2 94.9 60.2 112.8-10.7 262.6-136.4 291.5z"/></g></g></svg>
