<svg xmlns="http://www.w3.org/2000/svg" viewBox="0 0 200 154.8">
	<path d="M197.2 118c-3.9 4.9-13.3 8.4-13.3 8.4l-70.5 25.3V133l51.9-18.5c5.9-2.1 6.8-5.1 2-6.7-4.8-1.6-13.4-1.1-19.3 1L113.4 121v-19.4l2-.7s10-3.5 24-5.1c14-1.5 31.2.2 44.7 5.3 15.3 4.9 17 12 13.1 16.9zm-77.1-31.8V38.4c0-5.6-1-10.8-6.3-12.2-4-1.3-6.5 2.5-6.5 8.1v119.6L75 143.6V1c13.7 2.5 33.7 8.6 44.4 12.2 27.3 9.4 36.6 21 36.6 47.3 0 25.7-15.8 35.4-35.9 25.7zM15.9 131C.3 126.6-2.3 117.4 4.8 112.2c6.6-4.9 17.8-8.5 17.8-8.5l46.2-16.4V106l-33.3 11.9c-5.9 2.1-6.8 5.1-2 6.7 4.8 1.6 13.4 1.1 19.3-1l16-5.8v16.8c-1 .2-2.1.4-3.2.5-16 2.5-33 1.4-49.7-4.1z" fill="#fff"/>
</svg>
