<svg id="Layer_1" data-name="Layer 1" xmlns="http://www.w3.org/2000/svg" xmlns:xlink="http://www.w3.org/1999/xlink" viewBox="0 0 1000 600"><defs><style>.cls-1{fill:url(#linear-gradient);}.cls-2{fill:#ccc;}</style><linearGradient id="linear-gradient" x1="500" y1="95.55" x2="500" y2="452.17" gradientUnits="userSpaceOnUse"><stop offset="0" stop-color="#0086ca"/><stop offset="1" stop-color="#00aeff"/></linearGradient></defs><path class="cls-1" d="M587.25,378c0,4.92,2.52,5.95,2.8,9.06V413.2l-.46.3a25,25,0,0,0-2.3,1.75,6.87,6.87,0,0,1,.06.85,10.72,10.72,0,0,1-.11,1.22l-.15.93h-42l-.32-.55a24.31,24.31,0,0,0-1.73-2.52l-13.84-1.48a27.92,27.92,0,0,1-10.61,7l-.17.06h-.17c-10.57,0-16.46.5-22.53.5-2.83.53-10.4,5.13-16.24,5.19H479l-.3-.34a10.11,10.11,0,0,1-2.82-7.21c0-2.05.44-3.8.43-4.72V403.05l.47-.33a9.59,9.59,0,0,0,2.55-2,5.37,5.37,0,0,0,.81-3.22,20.45,20.45,0,0,0-1-5.57l-.26-.77.66-.46c2.56-1.83,4-2.48,5.23-4.87a8.77,8.77,0,0,0,.64-3.59,24.86,24.86,0,0,0-.71-5.45l-.2-.76.63-.41a9.4,9.4,0,0,0,2.54-2,5.16,5.16,0,0,0,.72-3,18.79,18.79,0,0,0-.88-5.09l-.06-.19v-.17c.17-1.55,2.06-4.37,2.83-7.08a31.12,31.12,0,0,0,1-8.36,82.16,82.16,0,0,0-1-11.7c0-2.7-1.54-3.28-2.74-6.41-2.08-5.92-2.74-13.14-2.74-20.13a151.88,151.88,0,0,1,2.75-27.35l16.68-44.32c-.11-.62-1.67-1-2.73-3.17a4.82,4.82,0,0,1-.32-1.56c0-1,.25-1.58.25-2.59V232l.33-.32s3.92-4,3.86-8.27c0-1.5,0-2.37,0-3.23,0-.43,0-.87,0-1.44.63-3.26,7.5-11.64,8.37-19.57a31.26,31.26,0,0,0,.15-3.47c0-2.41-.15-4.63-.15-4.71.21-2.68,11.46-28.58,19.51-36.63v-9.91l.47-.31c.56-.32,2.47-1.9,2.32-2.75v-.07c0-.81-.09-.31-1.51-2H520l-.29-.55a11.86,11.86,0,0,0-1.93-2.78,5.92,5.92,0,0,0-4.39-1.49c-3.65,0-7.61,1.72-9.49,1.8-.53-.18-2.64,1.61-4.42,5.75a75.88,75.88,0,0,0-5,18.22c-2.63,16.7-5.39,19-9,19-.58,0-1.06-.06-1.5,0-1.21.06-2,.06-3.61,2.49l-.68,1.11-1-.86c-1.24-1.12-2.83-2.61-3.35-2.93l-.72-.47.3-.8a17.3,17.3,0,0,0,1.38-6.19c0-2.94-1.38-4.5-1.45-7.75.12-2.62,2.54-4.93,4.19-6.5V105.6l1-.07c.91-.06,3.1-.06,8.52-.06,10.83,0,34.51.06,85.65.06h.62l.32.53c1.69,2.79,1.78,2.61,1.88,2.56s.76-.09,1.57-.09a5,5,0,0,1,.64,0l.93.12v3.58l-.24.31c-2.48,2.8-3.43,12.64-11.54,20.81a39.3,39.3,0,0,1,.36,5.24,18.59,18.59,0,0,1-.45,4.44c-1.39,5.36-2.84,6.27-8.28,11.42a34.17,34.17,0,0,1,.43,5.24,16.52,16.52,0,0,1-.53,4.48c-1.94,4.81-5.36,2.64-5.55,8.15,0,0-1.55,10.61-3,17.36s-4.88,10.57-4.82,15.67a16.24,16.24,0,0,0,.24,2.61l-.84,27.32-.43.31c-4.08,2.43-3.33,18.11-10.68,25.95v9.55l-.07.16c-2.25,5.93-6.55,5.59-8.3,13.22v31.09l-8.37,24.06c.08.92.34,4.32.34,8a47.38,47.38,0,0,1-.36,6.32c-1.14,7.64-6.18,16.94-8.72,21.27-.64,1-.94,1.58-1.23,2,0,.22,0,.46,0,.69,0,3.07-2.23,8.26-2.64,9.29-.19,2-1.71,4.75-2.52,6.31,1,1.06,1.37,1.44,2.16,1.41.14.09.89-.69,1.85-2.47l.49-.87.91.45a10.76,10.76,0,0,0,4.82,1.07c3.1,0,6.39-1.16,10.52-1.16,1.13-.2,1.28-1,1.6-3.12s.56-4.78,2.73-7.1c4.19-4.42,13.48-5.37,15.49-7,11.31-7.85,16-4.19,23.41-16.25l.68-1.13.95.89a24.63,24.63,0,0,1,2.56,2.74h14l.31.52c1.44,2.45,4.31,4.2,4.37,8.1C589.5,372.58,587.33,371.62,587.25,378Zm70.88-56.36c0,15.29-.3,30.24-1.22,34l-.08.39-.34.24c-1.47.86-3.55,7.24-5.58,13.93-2.09,6.53-4.37,13.54-7.93,17.31v15.92l-.42.32c-3.22,2-3.74,14.2-7.93,19.15v9.94l-.47.34a18.3,18.3,0,0,0-2.3,1.83v12.89l-.46.34c-2.36,1.58-2.11,3.07-4.82,3.2a1.65,1.65,0,0,1-1.41-.81,6.92,6.92,0,0,0-1.55.7l-1.57.88,0-17.36-8.41-27.44v-8.29c.51-6.2-13.71-11-13.93-24.11v-.43l.28-.32c0-.08,17-18.25,17.83-43v-.06c.46-1.65-7.17-7.12-15.29-11.42-7.72-4.37-15.64-8.24-18.23-10.81h-5l2.39,7V331.1c3.73,1,6.09,5.55,8.43,5.83a1.65,1.65,0,0,1,1.45,1.57c-.41,2.47-3.78,4.6-4.34,8l-.15.94-1-.07s-8.55-.55-15.52-.55a37.77,37.77,0,0,0-7.78.51c-13.27,4.43-28.35,10.1-28.38,10.1l-.82.32-.47-.76c-3.61-6.07-.56-4.4-3.92-9.19l-.43-.64.45-.6c5.09-6.87,6.3-8.07,9.88-11.3.07-1.7.41-7.66,2.56-11.34,2.88-4.29,9.19-5.53,8.58-7,.13-.3-.68-1.05-2.32-2.13l-.56-.37.09-.64s1-8.86,1.94-13.72a17.27,17.27,0,0,1,.74-2.85,27.33,27.33,0,0,1-1.36-7.69,8.78,8.78,0,0,1,1.72-5.71,13.08,13.08,0,0,1,2.54-2.08v-12.1l.45-.31c2-1.55,2.22-1.59,2.32-3.65-.13-1,.06-.47-.85-1a3.67,3.67,0,0,1-2.11-3.84,11.88,11.88,0,0,1,.21-2.17,19.44,19.44,0,0,0,.45-4.12c0-2.69-.71-4.46-.72-7a11.64,11.64,0,0,1,.59-3.66c1.36-4.31,3.48-6.08,5.33-9.59a40.89,40.89,0,0,0,3.16-15.67V218l.53-.3c6.32-3.25,2.55-17.37,7.45-28.63,2.47-5.33,4.26-10.4,7.64-13.65a5.56,5.56,0,0,0,.09-1c0-2-1-3.67-1-5.84a4.67,4.67,0,0,1,1.12-3.11,10.62,10.62,0,0,1,2.69-2.22c.51-1.8,3.09-10.39,6-15.73,1.75-3.08,1.76-4.82,5.46-8.24V127.17l.45-.34c1.78-1.33,1.69-1.57,2.11-2.39s1.2-2,3.74-3.66l.21-.12.23,0c2.59-.32,2.92-2.59,3-6.34,0-1,0-2.08,0-3.14,0-3.85.63-8.62,6-8.63,9.35.44,8.24,15.66,9.33,17.2,7.47,16.3,9.51,13.69,9.85,17.8v8.3c-.07,7,10.09,33.32,10.18,33.46l8.76,34.53c.88.74,1.61,1.4,2.44,2l.47.31v12.16c2.27,2.17,3,3.89,3,5.38,0,1.2-.38,2-.35,2.51s.17,1.32,2.47,3l.44.31v16.39l-.8.17c0,.21,0,.5,0,.82-.07,6,2.89,27.52,3.71,29.94l.2.14.07.49C657.83,291.9,658.13,306.77,658.13,321.61Zm-69.81-41.73a20.89,20.89,0,0,1-.42,4.89l-.1.39a49.49,49.49,0,0,1,5.07-.28,37.75,37.75,0,0,1,8.15.84c8.14,1.76,12.61,7.39,18,9,.63,0,1.23,0,1.76,0h.62c.09-3.84.4-17.94.4-29.16,0-6.21-.1-11.61-.39-13.67-1.77-2.05-1.63-5.91-2.17-10.13-.39-4.45-1.21-9.07-3.08-10.66-3.28-3.18-7.61-1.48-11.55-5.46-2.13-2.34-3.86-6.16-5.06-9.38l-.43,12.58v.53l-.45.3c-1.94,1.37-2.39,3.51-3.11,5.82-.58,2-1.84,4.3-4.85,4.83-.13,3.35-.42,14.64-2.78,18.17a25.21,25.21,0,0,0-.25,4.06C587.64,267.72,588.32,274.83,588.32,279.88ZM473,329.92l-1.18.32c-4.29,1-2.31,4.45-5.91,8.26-.51.8-.88,6.16-.83,12.32,0,12.44.93,29.27,1,29.31l.05,1.12h-1.13c-1.11-.14-8.87,2.94-10.25,5.53l-.33.5H422.5l-.32-.5c-1.77-2.9-1.83-2.82-2-2.74-.39,0-1.47.23-3.37.23-3.42.06-4.29,1.19-5.37,2.56s-2.09,3.45-5.19,3.45h-.11c-.07,0-6.23-1.17-9.33-4.49H375.09l-.3-.51c-1.49-2.56-2.85-2.36-3-5.1.31-1.4,1-1.58,1.91-2.74.76-.79,1.61-1.64,2.27-2.24V357.05l.45-.3c2.61-1.93,2.41-1.76,2.42-2.25s-.08-1.09-.09-2.15c0,0,0-.07-.12-.34a11.78,11.78,0,0,0-.42-1.11c-.36-.89-.87-2-1.45-3.22-1.08-2.3-2.64-4.77-3.13-5l-.89-.63.64-.87a8.17,8.17,0,0,0,1.74-4.94,8.59,8.59,0,0,0-1.69-5l-.21-.25,0-.27a30.91,30.91,0,0,1-.32-4.49c0-8.84,3.13-19.19,3.11-24.47v-.58l0-.57.47-.34c2.79-1.58,1.85-10.71,5.24-17.71,3.09-6,9.88-13.74,9.75-13.55.94-1.66-.25-10.4,11.83-23.41.62-3.09,5.66-28,10.54-35.48a33.88,33.88,0,0,1,3.8-3c1.24-.94,2.46-1.84,3.06-2.27.28-1.61,1.9-6.12,11.16-14.7a39.83,39.83,0,0,1-1.36-9.8,20.06,20.06,0,0,1,1.61-8.41l.12-.26.21-.15c6-4.28,9.62-14.1,19.08-23V129.67l-30.67-.3c-4.58,4.32-16.7,4.79-16.78,20.79v1.07H403a14.82,14.82,0,0,0-6,2.27c-2.34,1.43-4.11,3.39-4.05,4.93v22.63c-.11,2.2-1.78,4.55-5.73,11.11l-.68,1.12-1-.89c-2-1.84-2.66-3.54-2.64-5,0-1.06.24-1.84.23-2.41,0-.74-.16-1.5-2.36-3.12l-.38-.26-.07-.47s-.81-5.81-1.51-9.43c-.3-2.13-.45-4.17-.82-4.16l-.69-.47.29-.78s2.59-6.9,2.59-13.1c0-3.11-.67-5.94-2.35-7.63a14.61,14.61,0,0,0-2.62-2.13l-.48-.32V116.61l.22-.27s2.68-3.67,2.6-6.21a5,5,0,0,0,0-.55l-.16-1.21h1.23c39.38,0,43,.31,81.67.31h1.06v15.41c-.24,2.39,2.55,2.74,2.79,6.77v51l-.38.32c-2.62,2.21-3.43,6-3.41,9.54a30.07,30.07,0,0,0,1,7.44l.23.73-.64.44c-8.14,5.66-12.29,28.26-17.18,34.07v13.12l-.64.28s-11.29,4.88-13.36,10.71a14.41,14.41,0,0,0-.74,5,38,38,0,0,0,.78,7.17l.19.89-.83.34c-9.22,3.45-24,44.88-23.73,47.27v7.53l-1.15.11.6.55s0,0-.09.13a7.48,7.48,0,0,0-.52,1c-.43.95-1,2.38-1.65,4.09-1.3,3.45-3,8.12-4.7,12.94-3.3,9-6.71,18.36-9,21.85,1.52,2.19,1.65,2.17,1.75,2.1.28,0,1.13-.17,2.51-.17,2.47.08,3.5-1.4,14.19-6.7,2.3-.8,5.05.78,13.25-3,1.28-.35,4.6-6.57,8.6-12.39,3.95-5.59,9.08-11.24,16-11.77.45-2.94,2.2-9,5.11-11.8l1-.94.68,1.17a18.51,18.51,0,0,0,1.48,2.24c8.86-4.09,4.91-8.44,9.54-14.06l.31-.37h7.87l0,1.11s0,1.09,0,2.75c0,3.69.24,10.4,1.46,13.22ZM235,348.64C235,352,237,358.78,237,365.2a23.87,23.87,0,0,1-.36,4.41c-1.08,5.72-4.69,13.8-4.8,14,0,0-5.77,8.3-8,14.05-2.75,6.92-3.87,19.1-3.87,19.1l0,.62-.57.27s-11.6,5.36-18,10.09c-5.72,4.19-11.51,7.87-12.89,11.74l-.22.62-.62.08s-13.69,1.95-17.73,3.53c-.55.18-.78.32-.76.35a3.64,3.64,0,0,1-2.7,1.66c-3.2-.6-3.94-4.3-6.09-4-.83,0-2.17.5-4.12,2.37-1.38,2.9-5.57,3-10.17,3.13a116,116,0,0,1-16.92-1.6,7.63,7.63,0,0,1-3.33.53c-3,0-6.94-.64-9.11-.64a5.45,5.45,0,0,0-1.08.09l-.57,1-1-.91c-1.24-1.11-2.83-2.59-3.34-2.9l-1.78-1.17,2-.73s6.48-2.53,8.45-4.43h0s0,0,0,0,.12-.26.22-.47c.19-.47.43-1.14.7-2,.52-1.66,1.16-3.94,1.81-6.52,1.33-5.13,2.73-11.42,3.63-16.14,0-16.33,1-24.71,1-33.27a104.17,104.17,0,0,0-1-14.09c-.27-2-1.15-17.06-2.46-28,0-17.64,1-35.74,1-46.42,0-2,0-3.81-.13-5.23l0-1,1-.1a4,4,0,0,0,3.36-2.47l-.64-13.95-2.15-4.5.3-20.4a15.32,15.32,0,0,1,2.64-6,12.6,12.6,0,0,0,.45-4.26c0-2.7-.25-5.63-.32-6.46l-3.07-5V149.21l.46-.32c2.66-1.93,2.61-1.92,2.56-2.29s-.22-1.62-.22-3.62.12-3,.12-3.3l-.07,0a16.73,16.73,0,0,1-1.55-1.65c-.58,0-1.47.1-2.38.15a1.1,1.1,0,0,1-1,.67,2.11,2.11,0,0,1-1.21-.59h-.09a3.39,3.39,0,0,1-.87-.07c0-.09-.63,0-.84-1.07a1.57,1.57,0,0,1,.38-.85c-.6-.66-1.17-1.3-1.38-1.58l-9.24-8.86c-1.22-2-1.82-2.43-2-2.57s-1.21-1.18-.93-1.85c0-.56,0-1.37,0-2.91,0-2.65-.11-3.37.59-4.38a13.16,13.16,0,0,0,2.37-3l.31-.54h14.87c2-1.4,6.26-1.8,11.15-2.53,5.24-.65,10.62-1,12.44-1l14.74.49c14.86,0,20.33-1.45,28.16-1.47a77.3,77.3,0,0,1,12.73,1.16l.7.1.17.7c1.09,4.32,5.35,6.16,7.42,7.94a12,12,0,0,1,1.62-.11,13.07,13.07,0,0,1,7.26,2.08c9.3,6.34,14.36,21.53,14.41,29.53S238.16,163,238.16,169c0,3.49-.66,6.61-2.73,8.61L225.06,197c-3.88,7.29-13.09,18.39-16.21,22.11a8.26,8.26,0,0,0,3.17,2.8,24.2,24.2,0,0,0,9.52,2.94,4.13,4.13,0,0,1,3.61,4.33c-.05,3.68-2.9,7.77-3.2,8.15-.06,0-.23.27-.23.85a5.65,5.65,0,0,0,.72,2.56c.45.83,1,1.1,1,1.07s.11.05.46-.46l.69-1.1.94.92c4.29,4.2,4.84,5.39,4.94,6.53.09.38-.76-.36,2.6,2.24l.58.43-.16.7a91.33,91.33,0,0,0-2.31,19.07c0,4.81.57,9.67,2.23,13.41.77,2.31,5.46,3.51,5.91,7a3.23,3.23,0,0,1-.88,2.11c0,1,0,3.69,0,6.56,0,1.83,0,3.73,0,5.36,0,.37,0,.72,0,1.1,0,8.78,1.63,17.18,1.64,24.85,0,6-1,11.63-4.77,16.45A2.91,2.91,0,0,0,235,348.64ZM196.8,156.23c.08-.3-.2-.91.6-1.34l4-2.85c-4.6-1.56-8.6,1.24-12.48-6.65l-1.27,0-12.35,1.78.75-1.75a2.54,2.54,0,0,0,.23-.94,11.18,11.18,0,0,1-1,.49,10.73,10.73,0,0,0-.62,3.94c0,1.28-.74,2.51-2.77,3.62v53.32a9.2,9.2,0,0,1,2.85-.5h.12a5.62,5.62,0,0,1,3,.92c5.55-1.66,3.21-15.27,19-17.17,0-1.4-.09-3.66-.09-6.22.2-6.28,0-14,2.73-17C198.84,163.93,196.86,158.37,196.8,156.23Zm2.27,189.94c.07-1.86,1.05-3.53,1-4.73a2.13,2.13,0,0,0-1.21-2l-1.36-.85,1.29-.93a2.38,2.38,0,0,0,1-2.22c.1-3.28-3.67-9.08-3.75-14.53a8.34,8.34,0,0,1,3.33-6.86c-.1-6.54-1.07-7.4-2-8.4-1.19-1.13-2.67-2.78-2.57-8.67.08-3.06,2.77-8.62,2.72-11.85,0-1.2-.29-1.7-.78-1.95l-.94-.5.46-.94a6.21,6.21,0,0,0,.73-3c0-3.45-2.64-6.43-2.66-6.44l-1.53-1.7,2.26-.11a3.3,3.3,0,0,0,.69-.1c-.1-.67-2-2.73-2.18-4.74a1.82,1.82,0,0,1,.75-1.57,1.32,1.32,0,0,0,.41-1c.2-2.2-4.49-6.61-4.38-6.5-5.35-2.91-11.47-8.82-11.54-8.88l-6.89-7.1c.09,3.61.21,10.19.21,16.19,0,4.39-.07,8.46-.29,10.93l0,.32-.2.26c-1,1.23-1.55,3.86-1.52,6.77a59.44,59.44,0,0,0,1.72,12.62l.07.24-3,14.39-.53.21a3.08,3.08,0,0,0-2.11,2.87,2.75,2.75,0,0,0,0,.34,3.19,3.19,0,0,0,2.15,3.1l.66.27v52.61l-.26.32c-1.47,1.59-2.36,1.92-2.54,3.24-.17,1-.28,1.66-.41,2.13-.21.28,0,.62-.46.94.07,2.69.15,8.9.15,22.21,0,0,.23,6.86.38,9.75a1.17,1.17,0,0,1,.28.26,1,1,0,0,1,.24.69c-.2,1.25-1.61,3.49-3.14,6.5-.72,1.33-1.45,2.65-2,3.64a38.7,38.7,0,0,0,7.44-1.6l6.51-5.89.36,0c4.7-.09,10.6-10,14.55-13,4-3.28,2.19-14.61,3.92-23.86l.08-.42.26-.19h0c0-.1.13-.28.24-.5.19-.47.44-1.13.71-1.92.54-1.57,1.16-3.7,1.78-5.88,1.19-4.33,2.24-9.16,2.21-10.43v0A3.6,3.6,0,0,1,199.07,346.17ZM774.61,394a8,8,0,0,1,1.07,4,13.84,13.84,0,0,1-1.16,5.17c-1.52,3.52-.54,4.51-7.22,36.93l-.23,1.15-1.11-.32c-.11-.1-10.14-3-12.72-5.43-14.83-14.41-18.72-15.25-25-15.27h-4l-.26,0-.84.09-.29-.75a2.87,2.87,0,0,1-.17-1c.09-5,8.35-23.88,9.84-31.95.67-3.39,1.15-17.56,1.15-27.14a85.1,85.1,0,0,0-.31-9.05v-.11c0-1.45-1.71-13.37-4.46-24.86-2.53-11.51-7-22.94-9.88-23.17l-.94-.24.13-.95c.83-6.65,2.65-15.73,2.64-19.25a2.49,2.49,0,0,0-.08-1c-4.1-7.8-12.38-23.33-17.15-25.46a32.38,32.38,0,0,1,.33,3.81c0,2.69-.78,5.24-3.31,10.59-1.12,2.23-2.75,4.52-2.7,6.19a.86.86,0,0,0,0,.25l0,.3-.1.22h0v.38c0,7.34,7.17,65.83,7.18,71.31v.12l.06.64-.57.35s0,.05-.19.21a4.53,4.53,0,0,0-.56.77,4.37,4.37,0,0,0-.75,2.23.61.61,0,0,0,0,.24c-.17.63,2.07,2.21,2.43,4.95.27,3.43.55,7.47.55,11.59,0,6-.53,12.09-2.49,16.83.35,6.13,2.91,21.5,2.91,28.76a14.85,14.85,0,0,1-.16,2.55l0,.24-.16.21a6,6,0,0,1-2.49,2.18,36.07,36.07,0,0,1,.45,5.55c0,3.72-.56,9.31-2.65,18.27l-.82,3.54-1.24-3.42a74.27,74.27,0,0,0-23.77-33.27c-8.09-6.78-14.62-8.76-15.19-12.91.14-.16,9.76-34.59,14-38.67a9.72,9.72,0,0,0,.6-4,57.89,57.89,0,0,0-.68-7.72A18.72,18.72,0,0,0,672,345.7l-.51-.34,0-.61c0-.58,0-9.51,0-21,0-21.79,0-53,0-56.32-1-1.88-.5-4.76-1-5.57l0,0-.41-.28-1.35-11.93c-1.17-1.7-1.89-4.91-2.34-5l-.47-.31,0-.54s-.07-3-.07-5.9c0-1.3,0-2.62.07-3.67a11.12,11.12,0,0,1-.88-3.72,23,23,0,0,0-.8-4.13l0-.07-.51-.35.05-.6s0-.35,0-1c0-1.8-.21-5.86-1.32-8.14-1.11-1.45-.8-3.45-1.08-6.14a31.16,31.16,0,0,0-.56-5.57l-.34-.24L660.4,190c-2.29-2.3-2.89-3.62-2.9-4.81,0-.47.09-.77.08-.88s.06-.48-2.3-2.19l-.39-.28,0-.45a108.85,108.85,0,0,1-.66-12.94,109.33,109.33,0,0,1,.66-13l0-.36.25-.25c4.61-4.51,17.41-10.93,26-22.79-2.17-.8-7.9-2.29-9.08-2.5a4.87,4.87,0,0,0-.47.55,4.07,4.07,0,0,1-2.06,1.65,10.34,10.34,0,0,1-3,.75,5.43,5.43,0,0,1-2.73-.84l-.52-.3,0-.58c-.19-4.4-5.16-10-10.35-14.31-4.77-4.06-9.2-6.86-10.68-8.12L632,106.15l.2-2.13,40.37-1.11c3.64-1.68,4.4-1.94,7-1.89,2.73-.15,3.29,1,4.73,3H699l.17.3c.16.06.38.17.68.26.62.25,1.5.55,2.57.91,2.14.72,4.95,1.62,7.75,2.51,5.49,1.73,10.92,3.38,10.9,3.41.68,0,1.62,0,2.66,0a22.92,22.92,0,0,1,3.38.21c4.83.64,9.18,3.79,12.72,6.7,3.32,2.91,6.47,5.55,6.65,5.34h.68l14.27,30.12A24,24,0,0,1,762,160c0,5.18-.4,11.5-.4,11.5l-.07.54-.4.3a12.86,12.86,0,0,0-1.05,2.74,15.54,15.54,0,0,1-1.29,3.45c0,1.58.06,3.34.06,5,0,3.58-.06,6.75-.13,7-5.21,20.53-14.89,37-32.71,37.71,0,2.5.08,4,.08,5.06,0,2.17-.57,2.62-1.76,3.75.25,0,.48,0,.72,0,2.09,0,3.85-.78,6.19-.81,3.32,0,6.93,1.85,12.95,9.11,4,1.84,3,6.76,3.58,8.63.17.7.3.77.5.83a34.54,34.54,0,0,1,4.13,1.7,2.32,2.32,0,0,1,1.32,2,5.5,5.5,0,0,0,0,1,7.08,7.08,0,0,0,.89,3.2c.85,2.14,1.12,8.6,2.17,9.33,1.11,2.1,1.15,8.49,1.45,15.31.16,6.54.77,13.67,1.15,13.74h0c.73.64.56,1.24.83,2s.32,2,.57,3c.39,2.23,1.26,3.57,1.76,3.47a2.65,2.65,0,0,0,1.15-.47l1-.62.54,1c1.41,2.73,4.88,30.47,5.31,32.7l.06.44-.21.38c-.7.7-1.73,8.93-1.73,10.25.19.31,1.17.68,2.86,1.09l.43.09.22.38c1.06,1.78,3.61,7.34,3.76,10.24l.12.39-.31.45a4.78,4.78,0,0,0-1.1,2.85c0,1.5,1.06,3.89,1.06,9.33a73.9,73.9,0,0,1-1.74,14.52s0,0,.13.18S774.36,393.49,774.61,394ZM723.67,194.06a35,35,0,0,1,.63-6.11l.26-1.3.64.28a8.75,8.75,0,0,0,.37-.92,7.87,7.87,0,0,1,1-2.22l0-5.84a13.77,13.77,0,0,0,.33-3.24A22.75,22.75,0,0,0,724,163.77c0-.05-4.26-6-9.29-12s-11.24-11.91-13.62-11.7c-.63,0-1.21,0-1.74,0h-.6v82.42c.81.07,2.05.14,3.32.14a15.59,15.59,0,0,0,3.08-.21c4.53-.81,9.35-4.1,10.5-5.64,2.57-3.18,6.22-15.94,8.11-20.6A14.13,14.13,0,0,1,723.67,194.06Zm157,33.27c0,6.08-.25,11.27-1.1,13.81l-.13.32-.26.21c-.76.27-2.12,5.07-3.83,7.22-.05.64-.07,1.33-.07,2,0,3.33.46,7.29.46,11.12,0,3.35-.34,6.6-1.78,9.31a29.31,29.31,0,0,1-6.52,9.59l-1.82,13.73c-2.62,6.77-1.05,8.11-2.05,10.1.19,2.63,1.6,23.56,1.6,39.27,0,6.89-.25,12.73-1.12,16-1.9,4.42-2.15,9.24-2.15,14.34,0,1.38,0,2.76,0,4.17,0,5.29-.21,10.8-2.33,16.05l-2.91,15.71c-2.46,6.75-2.5,8.2-5.81,12.21-1.46,3-2.1,3.93-3,4.56a6.79,6.79,0,0,0-2.3,1.9c-1.24,3.22-6.94,4.12-13.5,6.21-7,1.9-14.9,3.9-18.79,6a2.67,2.67,0,0,1-.79.11c-3-.17-6.77-3.57-8.16-3.39-.17,0-.17,0-.19,0-1.17,2.13-4.28,2.58-7.93,3.46A64.77,64.77,0,0,1,785,442.67a6.88,6.88,0,0,1-2.88-.37l-1.27-.69,1-1a31.87,31.87,0,0,0,8.93-19.12c0-.45,0-.92,0-1.43,0-6.39-3.26-15.25-3.28-15.25l-.37-1,1-.37c4-1.44,12.39-5.38,11.8-6.87a2.55,2.55,0,0,0-.2-1.24l-.13,0a.83.83,0,0,0-.27,0,2.16,2.16,0,0,1-2.22-1.25L794,386l-5.69-13.1,5.15-51.07c-6.41-7-12.37-27.1-12.53-29V284.5c.24-2.4-2.53-2.77-2.78-6.7,0,0-.67-10-.67-17.69a38.53,38.53,0,0,1,.5-7.7,17.72,17.72,0,0,0-2.14-1.69l-.53-.34,1.15-19.46c-.62-1.12-.65-2.56-1-4.4a39.41,39.41,0,0,0-1-5.09l0-.12-.5-.33V164.09l.5-.32a24.47,24.47,0,0,0,2.3-1.88V140l.48-.31a23.16,23.16,0,0,0,2.3-1.87V122.15c-2.87-2.75-23.87-22.72-24.85-23.92l-1.39-1.74h16.09l.31.55a18.67,18.67,0,0,0,1.7,2.48h9.41l.17.86c-.18,2.79,13.24,4.37,19.63,11.18h9.2l.3.53a30.65,30.65,0,0,0,3.07,4h9.16l.33.53a19.24,19.24,0,0,0,1.69,2.48h11.95l.3.53a18.2,18.2,0,0,0,1.68,2.48h13l.32.53c4.15,6.8,12.29,11.22,14,14.41,9.48,19.9,7.56,21.63,10.8,23.72l.46.31-.78,28.8a22.09,22.09,0,0,1,1.6,4.6,29.77,29.77,0,0,0,1.6,4.76l.34.23V200S880.65,215.21,880.65,227.33ZM838.4,274.68c0-7.74,4-11.07,5.45-12,.51-2.88,2.51-16.45,6.6-20.09V215c-2.05-1.79-2.94-5.55-3.92-9.35-.95-4-1.83-8.34-2.14-8.65-3.23-4.79-9.95-6.49-10.61-13.93-6.64-.73-7.54-6.48-10.14-5.95-5.31,0-8-.4-12.06-.4-1.27,0-2.66,0-4.28.13l-1.11,10.43.79,3.62s1.17,30.33,1.17,41.7c0,1,0,1.78,0,2.44,0,0,0,0,.06.07.29.53.62,1.21.92,1.89.62,1.36,1.17,2.69,1.2,2.69l.06.21v.21c-.23,3.37,3.4,16.81,5,17.15l.57.3-.4,133.17c4.12-5.05,13.39-18,13.35-30.87,0-.46,0-.93,0-1.74,3.12-10.67,6.57-14.25,7.61-20.32,0,0,0-.11,0-.26.06-3.34,0-54.7,1.93-61.48C838.43,275.59,838.4,275.13,838.4,274.68ZM364.86,389.81l-1.73-.68a10.19,10.19,0,0,0-4.09-.89c-.57,0-1.19.05-1.93.05h-.56l-.21-.28A.82.82,0,0,0,356,388a10.54,10.54,0,0,0-4.24,1.41l-.58.3-.51-.37c-.78-.64-5.58-1.21-10.91-1.15-8.29,0-18.75,1-21.56,2.11-4,3.86-5,4.81-6.51,5h0a1.72,1.72,0,0,1-1.16-.51h0l0,0a0,0,0,0,0,0,0c-1.79-.54-1.89-1.93-3.85-3.17l-.94-.66.71-.87c8-10.07,3.55-7,12.77-13.21,2.16-6.58,2.41-29.26,2.37-36.1v-2.63l.47-.3c2.53-1.91,2.4-1.91,2.43-2.59,0-.48-.09-1.32-.12-2.56.24-2-2.7-3.68-2.78-9.05.08-3.73,1.25-9.16,3.68-11.87l-.9-119.06.41-.31a21.5,21.5,0,0,1,2-1.46l.42-.24c0-.09,0-.2,0-.32.08-.46-.75-.62-2.32-1.53l-.45-.32-3.59-60.6c-.67-2.64-3.08-3.52-5.89-4.34-2.28-.69-5.22-1.31-5.92-3.91-2.61,0-3.65-.18-4.57-1.16a12.25,12.25,0,0,0-3.51-3.57l-.9-.65.68-.88c1-1.34,2.4-3.05,2.71-3.62l.4-.74.82.23c2.81.81,15.7,1.36,27.86,1.34,11.15,0,22.21-.49,24.35-1.32l.83-.33.46.8a34.06,34.06,0,0,0,3.39,4.37l.24.29v5.74l-.78.21c-6.81,1.82-14.18,8.09-14,13.29.09,4.14.54,3.85.83,4.09.82.27,2.16,1.55,1.95,5a5.72,5.72,0,0,1-2.5,5c-1.12.92-1.63,1.15-1.68,2.56,0,9,1.26,33.12,1.26,53.59,0,9.91-.3,19-1.17,25.14.94,1,.91,2.37,1.24,3.82a23.57,23.57,0,0,0,.91,4.4c.06.19.07.17.07.17l.44.26,1.53,8.84-.57.39a12.58,12.58,0,0,0-2.6,2.1c-1.58,1.7-2.06,4.24-2.06,6.8s.5,5.13.53,6.69a22.84,22.84,0,0,0-.29,3.23,34.08,34.08,0,0,0,.92,7.2c.32,1.81,0,5.56.4,7.54.09.64.22.81.26.8l.45.24.06.52a35.75,35.75,0,0,1,.37,5.39,49.3,49.3,0,0,1-.37,6.23l-.06.47-.41.29a14.65,14.65,0,0,0-2.61,2.1c-1.88,1.94-2.37,3.35-2.39,5-.06,3.31,2.69,7.91,2.7,16v1.11c.23,1.57,3,9.47,3.82,10.48h0l.44.34-1.5,21.17-.46.29a9.2,9.2,0,0,0-2.53,2,5,5,0,0,0-1.17,3.26c0,1.74.77,3.86,1.36,6.37,2.3,9.5,1.52,4.22,18.94,16.78l.36.25Zm98.77,60.74h-39l-.32-.56a26.08,26.08,0,0,0-1.68-2.47h-9.15l-.3-.51c-1.65-2.6-2.29-2.62-2.85-2.67-.36,0-.91.13-1.66.16-1.38,0-3-.69-4.86-3H377a6.78,6.78,0,0,1-6.28-4C365.2,437,330.4,437,312,437H299.85l-.32-.5c-1-2.06-7.93-4.13-8.14-4H281.25c-2,1.33-16.23,10.57-17.42,14.36l-.33.84-.87-.15a118.81,118.81,0,0,0-16.47-1.5c-3.74,0-7.17.45-8.58,1.35l-1,.6-.54-1a7,7,0,0,0-2.48-2.65l-.94-.69.71-.87c2-2.56,1.8-1.09,2.58-4.79l.09-.54,8.17-4.34c3.21-3.16,2.76-1.79,9.85-8.23V411.92l.47-.29c.72-.43,2.37-1.39,2.33-2.88,0-1.15-.81-1.79-2.35-2.89l-.45-.33v-23l.47-.32a23.06,23.06,0,0,0,2.33-1.85v-9.87l.44-.31c2.61-1.91,2.41-1.75,2.41-2.26s-.08-1.09-.08-2.13c0-3.62-2.65-5.69-5.12-7.44l-.45-.31L254,319.72l.66-.29c1.88-.89,1.21-.55,2.17-2.1a75,75,0,0,1-.66-10,69.23,69.23,0,0,1,.71-10.32l.08-.46.38-.26a22,22,0,0,0,2.31-1.85V264.21l.48-.3c.64-.34,3.2-3.9,3.1-6.59,0-.14,0-.31,0-.48a9.27,9.27,0,0,0-3.09-5.49l-.48-.31V208.73a16.42,16.42,0,0,0-2.31-1.85l-.46-.31v-23l.44-.32c2.17-1.53,3.11-3,5.16-4.9.14-1.6.59-7.52.59-12.82a37.14,37.14,0,0,0-.51-7.22,19.32,19.32,0,0,0-2.43-1.94l-.95-.66.71-.9c1.23-1.45,4.75-10.69,4.65-13.35v-.21c-.63-7.76-4.73-15.4-4.81-15.54-.13-1-3.36-1.72-5.56-1.61l-1.13,0-.21.44-1-.55c-3.26-2.45,1.07-4.11-14.05-15.14l-.91-.68.7-.88c2-2.53,1.79-1.08,2.56-4.8l.17-.87h5l.32.54a18.41,18.41,0,0,0,1.68,2.47h22.39l.31.51c3.2,5.16,5.16,5.78,6.44,5.78.92,0,1.74-.43,3-.48a2.7,2.7,0,0,1,1.65.64s8.72,10.8,12.35,13.36l.44.31V153l-.46.34c-2,1.53-2.23,1.57-2.32,3.63v.17l0,.07c0,.19.24,2.13,5.15,5.68l.43.3V176.4l-.47.34a18,18,0,0,0-2.3,1.84v59.35c2.52,2.21,3.95,2.31,5.45,5.27,1.33,2.78,1.58,10,1.62,19.06,0,17.92-1.5,41.78-1.5,41.78l0,.53-.43.3a19.67,19.67,0,0,0-2.33,1.84v20.15c.84.7,1.56,1.33,2.34,1.86l.37.25.08.44a42.06,42.06,0,0,1,.25,5.53c0,4.71-.24,10.52-.24,10.55l0,.86-.86.14c-3.41.53-3.13,2.79-4.56,7.09,2.11,3,2.7,2.49,2.66,5.28v.9c.21,3.38-.57,3.84-2.77,5.77V378.4l-.47.34a20.67,20.67,0,0,0-2.31,1.83v18.94l-.46.33c-1.79,1.31-1.72,1.85-2.38,4a3.48,3.48,0,0,0-.21.92c-.77.17,2.89.2,3.05,8.24,5.12.11,8.92.74,13.65.74a56,56,0,0,0,8.33-.65c2.32-3.57,3.47-4,8-6.85a6.06,6.06,0,0,1,1.28-.16c4.77.09,13.3,4.33,22.75,4.31a24.89,24.89,0,0,0,13.59-3.74c.6-1.74,2.34-1.82,4.65-2.41a82.8,82.8,0,0,1,10.45-1.15c8.59-.56,20.08-.75,31.75-.75,24.85,0,50.52.87,50.54.87l1,0v35.68l0,0c.08.17.21.45.34.76.29.67.74,1.56,1.26,2.6a67.76,67.76,0,0,0,3.76,6.65Zm429-335.69c0,3.48-1.7,8.18-13.26,8.18S866,118.34,866,114.86V103.73c0-3.4,1.82-8.18,13.41-8.18s13.26,4.78,13.26,8.18Zm-2.33-11.33c0-2.64-1.82-5.79-10.93-5.79s-11,3.15-11,5.79v11.53c0,2.64,1.89,5.85,11,5.85s10.93-3.14,10.93-5.79Zm-14.43,8.13v5.66c0,.31-.12.57-.47.57h-1.38c-.39,0-.52-.26-.52-.57V101.77c0-.37.13-.56.52-.56h6c4.8,0,6,2.32,6,4.47v1.51a4.15,4.15,0,0,1-3.22,4.15l2.6,6c.09.31-.15.57-.52.57h-1.46c-.3,0-.43-.26-.55-.57l-2.41-5.66h-4.54Zm0-8.57v6.68h3.85c2.71,0,3.86-1.32,3.86-2.71V105.8c0-1.38-1.09-2.71-3.86-2.71Z"/><path class="cls-2" d="M157.39,503.93l-22,0V474l21.74,0v5.48l-14.28,0v6.27h13.62v5.48l-13.62,0v7.2h14.58Zm62.8.06h-6.27L197.4,484.82v19.12H190V474.06l6.82,0,16,18.29V474.1l7.45,0Zm60.52-24.35-10.82,0V504h-7.44V479.6H251.63v-5.47l29.08,0Zm53.48,24.44-22,0V474.16l21.71,0v5.47l-14.28,0v6.26h13.63v5.48H319.58v7.18l14.61,0Zm45.86-29.85c6.13,0,9.78,4.14,9.78,8.61q0,4.94-5.12,7.3c3.07,1.53,4,5.23,8.18,14l-8.18,0c-3.21-6.39-4.38-12.14-8.42-12.14h-2.14v12.15l-7.45,0V474.21Zm-5.9,12.25,3.94,0c2.05,0,4.08-.88,4.08-3.41,0-2.24-1.46-3.39-4.26-3.39h-3.76ZM448,479.75l-10.81,0v24.38h-7.44V479.7H419v-5.47l29.07.06Zm57.66,24.44-8,0-2.45-5.9-13.36,0-2.24,5.93-7.89,0,12-29.86h8.64Zm-17.49-22.76L483.82,493l9.21,0ZM543.7,504.2h-7.45V474.31h7.45Zm64,.08H601.4l-16.52-19.2v19.17l-7.44,0V474.33l6.83,0,16,18.29V474.38h7.45Zm59.2-29.83h6.51v29.88l-7.45,0V485.65L657.84,495h-1.13l-8.06-9.39v18.66H641.2V474.39h6.49l9.59,11.11Zm62.07,29.91-22.05,0V474.45l21.73,0V480l-14.28,0v6.25l13.62,0v5.48l-13.62,0v7.19l14.6,0Zm62.78.08-6.27,0-16.51-19.18v19.16l-7.45,0V474.49l6.83,0,16,18.3V474.53l7.44,0Zm60.52-24.37-10.82,0v24.41H834V480H823.15v-5.48l29.09,0Z"/></svg>