<?xml version="1.0" encoding="UTF-8"?>
<svg enable-background="new 0 0 5404.8 6983.6" version="1.1" viewBox="0 0 5404.8 6983.6" xml:space="preserve" xmlns="http://www.w3.org/2000/svg">
<style type="text/css">
	.st0{fill:#FFFFFF;}
	.st1{fill:#FF7D00;}
	.st2{fill:#787878;}
</style>
	<path class="st0" d="M4631.9,0H774.3C349.3,0,0,347.9,0,774.3v5536.8c0,369.9,302.6,672.5,672.5,672.5h4059.8   c369.9,0,672.5-302.6,672.5-672.5V774.3C5404.8,347.9,5056.9,0,4631.9,0z"/>
		<path class="st1" d="m4933.1 4178.1c0 297.1-243.4 540.5-540.5 540.5h-3379c-298.4 0-540.5-243.4-540.5-540.5v-3189.3c0-297.1 243.4-540.5 540.5-540.5h3380.4c297.1 0 540.5 243.4 540.5 540.5v3189.2h-1.4z"/>
			<path class="st0" d="m1577.4 2241.7c0-59.1 49.5-105.9 110-105.9h280.6c24.8 0 44-11 67.4-27.5 178.8-122.4 397.5-193.9 632.6-193.9 602.4 0 1090.6 467.6 1090.6 1043.8v958.6c0 59.1-49.5 105.9-111.4 105.9h-354.8c-61.9 0-111.4-46.8-111.4-105.9v-958.6c0-270.9-229.7-491-513-491s-513 220-513 491v958.6c0 59.1-49.5 105.9-111.4 105.9h-356.2c-60.5 0-111.4-46.8-111.4-105.9v-1675.1h1.4z"/>
			<path class="st0" d="m1951.5 1466c218.7-96.3 462.1-151.3 719.3-151.3 579 0 1090.6 276.4 1400 697.3 26.1 34.4 74.3 42.6 108.6 16.5 34.4-26.1 41.3-74.3 16.5-110-338.3-460.7-895.3-760.5-1525.2-760.5-279.2 0-543.2 59.1-781.2 165-39.9 17.9-56.4 63.3-39.9 103.1 16.6 39.9 63.4 57.8 101.9 39.9"/>
			<path class="st0" d="m3838.4 2247.2c-23.4 0-46.8-11-61.9-31.6-253-343.8-667-548.7-1107.1-548.7-196.7 0-386.5 39.9-563.9 116.9-39.9 16.5-85.3-1.4-101.8-39.9-16.5-39.9 1.4-85.3 39.9-101.8 196.7-86.6 407.1-129.3 625.7-129.3 488.2 0 948.9 228.3 1232.2 612 24.8 34.4 17.9 82.5-16.5 108.6-15 9.7-31.5 13.8-46.6 13.8"/>
		<path class="st2" d="m3346 6524.3c-160.9 0-291.6-130.7-291.6-290.2 0-160.9 130.7-290.2 291.6-290.2s291.6 130.7 291.6 290.2-130.7 290.2-291.6 290.2zm167.8-290.2c0-94.9-75.6-173.3-167.8-173.3-93.5 0-167.8 77-167.8 173.3 0 94.9 75.6 173.3 167.8 173.3s167.8-78.4 167.8-173.3"/>
		<polygon class="st2" points="1853.9 6507.8 1853.9 6069.1 1705.3 6069.1 1705.3 5959 2124.8 5959 2124.8 6069.1 1976.3 6069.1 1976.3 6507.8"/>
		<path class="st2" d="m1268 6507.8c-39.9 0-63.3-24.8-63.3-63.3v-422.2c0-39.9 24.8-63.3 63.3-63.3h317.7v110h-259.9v111.4h215.9v104.6h-215.9v112.8h258.6v110h-316.4z"/>
		<polygon class="st2" points="2188.1 5715.6 2188.1 5264.5 2034 5264.5 2034 5182 2435.6 5182 2435.6 5264.5 2281.6 5264.5 2281.6 5715.6"/>
		<rect class="st2" x="1195.1" y="5182" width="94.9" height="535"/>
		<path class="st2" d="m2606.1 5715.6c-31.6 0-49.5-17.9-49.5-49.5v-434.6c0-31.6 17.9-50.9 49.5-50.9h310.8v82.5h-266.8v145.8h222.8v77h-222.8v145.8h266.8v82.5h-310.8v1.4z"/>
		<path class="st2" d="m3907.1 5182h-162.3c-31.6 0-49.5 17.9-49.5 50.9v434.6c0 31.6 17.9 49.5 49.5 49.5h162.3c162.3 0 279.2-112.8 279.2-266.8 0-156.8-116.9-268.2-279.2-268.2m-2.7 451.1h-115.5v-368.6h115.5c111.4 0 187 77 187 184.3 1.4 107.3-75.6 184.3-187 184.3"/>
		<path class="st2" d="m4571.4 5728c-154 0-280.6-125.1-280.6-279.2 0-154 125.1-279.2 280.6-279.2 154 0 280.6 125.1 280.6 279.2-1.4 154-126.6 279.2-280.6 279.2zm0-466.2c-101.8 0-184.3 83.9-184.3 187s82.5 187 184.3 187 184.3-83.9 184.3-187-82.5-187-184.3-187z"/>
		<path class="st2" d="m4224.8 6507.8l-134.8-204.9c71.5-24.8 116.9-86.6 116.9-166.4 0-103.1-78.4-177.4-185.7-177.4h-198c-38.5 0-63.3 24.8-63.3 63.3v485.5h121v-192.5h78.4l122.4 192.5h143.1zm-342.4-438.7h130.6c42.6 0 72.9 28.9 72.9 70.1 0 41.3-30.3 70.1-72.9 70.1h-130.7l0.1-140.2z"/>
		<path class="st2" d="m2615.8 6183.2l88 255.8c17.9 52.3 34.4 74.3 70.1 74.3 30.3 0 53.6-16.5 72.9-74.3l165-480h-133.4l-107.3 332.8-86.6-265.4c-16.5-52.3-35.8-71.5-68.8-71.5s-52.3 19.3-68.8 71.5l-86.6 265.4-107.2-332.8h-133.4l165 480c19.3 56.4 44 74.3 72.9 74.3 35.8 0 52.3-22 70.1-74.3l88.1-255.8z"/>
		<polygon class="st2" points="4686.9 6507.8 4839.6 6507.8 4625 6183.2 4814.8 5959 4659.4 5959 4471 6181.8 4471 5959 4350 5959 4350 6507.8 4471 6507.8 4471 6356.5 4539.8 6276.7"/>
		<path class="st2" d="m693.1 6507.8h-122.4v-489.6c0-37.1 23.4-63.3 66-63.3 17.9 0 41.3 9.6 64.6 41.3l229.7 302.6v-339.8h121v488.2c0 37.1-23.4 63.3-66 63.3-17.9 0-41.3-9.6-64.6-41.3l-228.3-301.2v339.8z"/>
		<path class="st2" d="m1037 5182h-94.9v372.7l-254.4-341.1c-22-28.9-37.1-37.1-57.8-37.1-37.1 0-59.1 24.8-59.1 59.1v481.4h94.9v-372.7l255.8 341.1c22 28.9 37.1 37.1 57.8 37.1 37.1 0 59.1-24.8 59.1-59.1v-481.4h-1.4z"/>
		<path class="st2" d="m1914.4 5182h-94.9v372.7l-255.8-341.1c-22-28.9-37.1-37.1-57.8-37.1-37.1 0-59.1 24.8-59.1 59.1v481.4h94.9v-374.1l255.8 341.1c22 28.9 37.1 37.1 57.8 37.1 37.1 0 59.1-24.8 59.1-59.1v-480z"/>
		<path class="st2" d="m3537.2 5180.6h-94.9v372.7l-255.8-341.1c-22-28.9-37.1-37.1-57.8-37.1-37.1 0-59.1 24.8-59.1 59.1v481.3h94.9v-372.7l255.8 341.1c22 28.9 37.1 37.1 57.8 37.1 38.5 0 59.1-24.8 59.1-59.1v-481.3z"/>
</svg>
