<?xml version="1.0" encoding="utf-8"?>
<!-- Generator: Adobe Illustrator 19.2.1, SVG Export Plug-In . SVG Version: 6.00 Build 0)  -->
<svg version="1.1" id="Layer_2_copy" xmlns="http://www.w3.org/2000/svg" xmlns:xlink="http://www.w3.org/1999/xlink" x="0px"
	 y="0px" viewBox="0 0 264 88" style="enable-background:new 0 0 264 88;" xml:space="preserve">
<style type="text/css">
	.st0{fill:#FFFFFF;}
	.st1{fill:none;stroke:#FFFFFF;stroke-width:1.5;}
	.st2{fill:none;stroke:#FFFFFF;stroke-miterlimit:10;}
</style>
<path id="Rectangle-11_1_" class="st0" d="M161,28.5l-3.95-3.95l-1.4,1.4l3.95,3.95L161,28.5z"/>
<path id="Oval-1_1_" class="st1" d="M152.5,27c3,0,5.5-2.5,5.5-5.5s-2.5-5.5-5.5-5.5s-5.5,2.5-5.5,5.5S149.5,27,152.5,27z"/>
<path class="st0" d="M150,21h5v1h-5V21z"/>
<path class="st0" d="M117,28.5l-1.4,1.4l-3.95-3.95l1.4-1.4L117,28.5z"/>
<path class="st1" d="M108.5,27c3,0,5.5-2.5,5.5-5.5s-2.5-5.5-5.5-5.5s-5.5,2.5-5.5,5.5S105.5,27,108.5,27z"/>
<polygon class="st0" points="111,21 109,21 109,19 108,19 108,21 106,21 106,22 108,22 108,24 109,24 109,22 111,22 "/>
<g>
	<path class="st0" d="M155.8,66.8c-0.2,0-0.5-0.1-0.7-0.3l-7.8-6.7c-0.2-0.2-0.4-0.5-0.4-0.8s0.1-0.6,0.4-0.8l7.8-6.8
		c0.5-0.4,1.1-0.3,1.5,0.1c0.4,0.5,0.3,1.1-0.1,1.5l-6.9,5.9l6.9,5.9c0.5,0.4,0.5,1.1,0.1,1.5C156.4,66.6,156.1,66.8,155.8,66.8z"/>
</g>
<g>
	<path class="st0" d="M108.5,66.8c-0.3,0-0.6-0.1-0.8-0.4c-0.4-0.5-0.3-1.1,0.1-1.5l6.9-5.9l-6.9-5.9c-0.5-0.4-0.5-1.1-0.1-1.5
		c0.4-0.5,1.1-0.5,1.5-0.1l7.8,6.8c0.2,0.2,0.4,0.5,0.4,0.8s-0.1,0.6-0.4,0.8l-7.8,6.7C109,66.7,108.8,66.8,108.5,66.8z"/>
</g>
<polygon class="st0" points="15,29 15,23 16,23 16,28 21,28 21,29 "/>
<polygon class="st0" points="29,15 29,21 28.1,21 28.1,16 23,15.875 23,15 "/>
<path id="Shape_2_" class="st0" d="M67,59.5v3.8c-6.3,0.8-9.2,5.7-10,9.7c2.2-2.8,5.6-5.1,10-5.1v3.6l6-5.9L67,59.5z"/>
<path class="st0" d="M20.6,66l-5.7-5.7l1.4-1.4l5.7,5.7l5.7-5.7l1.4,1.4L23.4,66l5.7,5.7l-1.4,1.4L22,67.4l-5.7,5.7l-1.4-1.4
	L20.6,66z"/>
<line class="st2" x1="15.5" y1="28.5" x2="21" y2="23"/>
<line class="st2" x1="22.75" y1="21.25" x2="28.25" y2="15.75"/>
<polygon class="st0" points="66,21 66,15 67,15 67,20 72,20 72,21 "/>
<polygon class="st0" points="64,23 64,29 63,29 63,24 58,24 58,23 "/>
<line class="st2" x1="66.5" y1="20.5" x2="72" y2="15"/>
<line class="st2" x1="58" y1="29" x2="63.5" y2="23.5"/>
</svg>
