<svg xmlns="http://www.w3.org/2000/svg" viewBox="0 0 64 64"><path d="M47.911 38.353a4.185 4.185 0 00-4.179-4.193h-23.88a4.185 4.185 0 00-4.179 4.193v5.901c5.247 1.75 7.365 5.029 7.365 10.884v3.283h17.509v-3.283c0-5.854 2.117-9.133 7.364-10.884v-5.901zm-16.098-8.865c4.154 0 7.521-3.379 7.521-7.546 0-4.169-3.367-7.548-7.521-7.548-4.155 0-7.523 3.38-7.523 7.548 0 4.167 3.368 7.546 7.523 7.546zm-14.776-8.087a7.47 7.47 0 002.645-.489c.398-3.397 2.172-6.427 4.742-8.456-.654-3.499-3.709-6.149-7.387-6.149-4.155 0-7.523 3.379-7.523 7.548 0 4.167 3.368 7.546 7.523 7.546zm-6.738 26.255v-9.303c0-4.913 4.656-8.236 9.552-8.236h2.311c-.85-1.425-1.514-2.721-1.957-4.043H5.076a4.184 4.184 0 00-4.179 4.193v5.901c5.247 1.75 6.716 5.029 6.716 10.884v3.283h9.225c-.744-.723-1.735-1.191-2.973-1.604l-3.566-1.075zm48.209-21.583H43.404c-.444 1.328-1.103 2.634-1.943 4.043h2.271c4.897 0 8.209 3.324 8.209 8.236v9.304l-2.895 1.073c-1.238.413-2.102.88-2.704 1.604h9.629V47.05c0-5.854 1.469-9.133 6.716-10.884v-5.901a4.185 4.185 0 00-4.179-4.192zm-14.552-5.156a7.473 7.473 0 002.633.485c4.155 0 7.521-3.379 7.521-7.546 0-4.169-3.367-7.548-7.521-7.548-3.668 0-6.719 2.635-7.385 6.12 2.59 2.025 4.374 5.063 4.752 8.489z" xmlns="http://www.w3.org/2000/svg" id="group"/></svg>