<svg xmlns="http://www.w3.org/2000/svg" viewBox="0 0 64 64"><g xmlns="http://www.w3.org/2000/svg" id="ilvl-color"><path d="M50.578 44.609l6.803-6.803a.237.237 0 00-.129-.402l-3.975-.661a.236.236 0 00-.207.066l-3.466 3.466-6.518-6.472-3.97 3.97 6.366 6.247-.473.473-6.244-6.368-3.766 3.766 6.518 6.472-3.687 3.687a.236.236 0 00-.066.207l.661 3.975a.237.237 0 00.402.129l6.929-6.929 10.997 9.26v3.841c0 .229.185.414.414.414h6.353a.414.414 0 00.414-.414V56.18a.414.414 0 00-.414-.414h-3.55l-9.392-11.157zm-29.26-16.47l3.841-3.842L9.882 8.703l15.521 15.351 4.002-4.002L11.998 2.67 2.08 1.059l1.69 9.555z" fill="#f7941d"/><path d="M61.887 1.074l-9.555 1.69-37.748 37.748-3.687-3.687a.236.236 0 00-.207-.066l-3.975.661a.237.237 0 00-.129.402l6.929 6.929-9.26 10.997H.414a.415.415 0 00-.414.415v6.353c0 .229.185.414.414.414h6.353a.414.414 0 00.414-.414v-3.55l11.155-9.393 6.803 6.803c.137.137.37.062.402-.129l.661-3.975a.236.236 0 00-.066-.207l-3.466-3.466 37.606-37.606 1.611-9.919zM18.926 44.476l-.473-.473L54.242 8.877 18.926 44.476z" fill="#fece92"/></g></svg>