<svg xmlns="http://www.w3.org/2000/svg" viewBox="0 0 64 64"><path d="M62.937 13.008a25.38 25.38 0 01-7.27 1.985 12.652 12.652 0 005.566-6.974 25.39 25.39 0 01-8.037 3.059 12.67 12.67 0 00-9.239-3.98c-6.991 0-12.658 5.644-12.658 12.604 0 .988.112 1.95.328 2.873-10.519-.526-19.845-5.544-26.088-13.17a12.512 12.512 0 00-1.713 6.337c0 4.373 2.234 8.231 5.631 10.491a12.627 12.627 0 01-5.733-1.577l-.001.159c0 6.107 4.363 11.202 10.153 12.359a12.725 12.725 0 01-5.716.216 12.664 12.664 0 0011.823 8.754A25.466 25.466 0 014.264 51.54c-1.022 0-2.029-.06-3.019-.176a35.927 35.927 0 0019.402 5.664c23.281 0 36.012-19.207 36.012-35.864 0-.546-.012-1.09-.036-1.631a25.65 25.65 0 006.314-6.525z" xmlns="http://www.w3.org/2000/svg" id="social-twitter"/></svg>