<svg xmlns="http://www.w3.org/2000/svg" viewBox="0 0 64 64"><path d="M62.155 19.487s-.602-4.309-2.448-6.206c-2.341-2.49-4.966-2.503-6.169-2.648C44.922 10 31.998 10 31.998 10h-.026s-12.924 0-21.54.633c-1.204.146-3.827.158-6.169 2.648-1.846 1.898-2.447 6.206-2.447 6.206s-.616 5.06-.616 10.12v4.743c0 5.06.616 10.12.616 10.12s.601 4.309 2.447 6.207c2.342 2.49 5.419 2.412 6.789 2.673 4.926.48 20.934.628 20.934.628s12.937-.02 21.553-.652c1.203-.146 3.828-.158 6.169-2.648 1.846-1.898 2.448-6.207 2.448-6.207s.615-5.06.615-10.12v-4.743c-.001-5.061-.616-10.121-.616-10.121zM25.628 40.099l-.003-17.568 16.636 8.815-16.633 8.753z" xmlns="http://www.w3.org/2000/svg" id="social-youtube"/></svg>