<svg xmlns="http://www.w3.org/2000/svg" viewBox="0 0 64 64"><path d="M13.908 5.964v22.583h10.22l3.183-10.304 3.081 10.304h10.337s-.112.131-.17.18c-2.595 2.178-8.113 6.471-8.113 6.471l3.218 10.448s-.193-.073-.24-.108c-2.708-1.978-8.112-6.29-8.112-6.29l-8.352 6.507 3.253-10.519s-.679-.597-1.027-.869c-2.087-1.623-4.253-3.337-6.366-4.99-.316-.247-.91-.755-.91-.755V64l14.74-12.741L42.05 64V7.381c.884-4.258 7.722-2.224 8.042-7.077-12.415 1.512-31.68-4.209-36.184 5.66z" xmlns="http://www.w3.org/2000/svg" id="tag"/></svg>