<svg xmlns="http://www.w3.org/2000/svg" viewBox="0 0 64 64"><path d="M40.985 0C28.284 0 17.961 10.324 17.961 23.023c0 4.805 1.484 9.268 4.013 12.965L.947 57.015a3.217 3.217 0 000 4.537l1.512 1.512a3.217 3.217 0 004.537 0l21.026-21.026a22.88 22.88 0 0012.963 4.012C53.677 46.051 64 35.713 64 23.023 64 10.324 53.677 0 40.985 0zm.001 39.239c-8.945 0-16.225-7.268-16.225-16.216 0-8.945 7.28-16.225 16.225-16.225s16.217 7.28 16.217 16.225c0 8.949-7.272 16.216-16.217 16.216z" xmlns="http://www.w3.org/2000/svg" id="wow-search"/></svg>