<svg xmlns="http://www.w3.org/2000/svg" viewBox="0 0 810 477"><defs><linearGradient id="A" x1="0%" y1="100%"><stop offset="0%" stop-color="#4ea2d2"/><stop offset="100%" stop-color="#0e85c9"/></linearGradient></defs><path fill="url(#A)" d="M492.5 310.4c-.05 4.52 2.3 5.45 2.57 8.3v24l-.43.27-2.1 1.6c.02.1.05.4.05.78 0 .3-.04.67-.1 1.12l-.14.85h-38.48l-.3-.5c-.52-.9-1-1.52-1.6-2.3l-12.7-1.36c-2.46 2.73-6.45 5.27-9.73 6.4l-.16.05h-.16c-9.7 0-15.1.46-20.66.45-2.6.5-9.54 4.7-14.9 4.77h-.44l-.28-.3c-2.06-2.2-2.6-4.6-2.58-6.62 0-1.88.4-3.48.4-4.32v-10.2l.43-.3c1.1-.76 1.68-1.02 2.34-1.88.52-.62.75-1.75.75-2.95 0-2.44-.9-5.1-.9-5.1l-.24-.7.6-.42c2.35-1.67 3.72-2.27 4.8-4.46.4-.84.6-2.05.6-3.3 0-2.5-.65-5-.65-5l-.18-.7.57-.38c1.12-.76 1.68-1.03 2.33-1.85.45-.6.66-1.6.66-2.72 0-2.24-.8-4.66-.8-4.66l-.05-.18v-.16c.16-1.42 1.9-4 2.6-6.5.64-2.18.88-4.95.88-7.66 0-5.42-.92-10.53-.92-10.73.04-2.48-1.4-3-2.5-5.88-1.9-5.43-2.52-12.05-2.52-18.46 0-12.83 2.48-24.9 2.52-25.08l15.3-40.64c-.1-.56-1.54-.95-2.5-2.9-.2-.52-.3-1-.3-1.43.02-.92.23-1.45.23-2.37v-.4l.3-.3c-.04-.03 3.6-3.66 3.53-7.58l-.02-2.97.02-1.3c.6-3 6.88-10.68 7.68-17.95.1-.93.13-2.08.13-3.18 0-2.2-.13-4.25-.13-4.32.2-2.46 10.5-26.2 17.9-33.6V96.3l.43-.3c.52-.3 2.27-1.74 2.12-2.52v-.06c-.02-.74-.08-.28-1.38-1.84H430.8l-.27-.5c-.68-1.15-.95-1.73-1.77-2.55-.98-.98-2.38-1.37-4.02-1.37-3.35-.01-6.98 1.58-8.7 1.66-.48-.17-2.42 1.48-4.05 5.27-1.7 3.75-3.37 9.38-4.58 16.7-2.4 15.3-4.94 17.4-8.22 17.46-.53 0-.98-.06-1.38-.04-1.1.05-1.88.05-3.3 2.28l-.62 1.02-.88-.8c-1.13-1.02-2.6-2.4-3.07-2.68l-.66-.44.27-.73c.98-2.52 1.27-4.3 1.27-5.67.04-2.7-1.27-4.12-1.33-7.1.1-2.4 2.33-4.52 3.84-5.95v-47.5l.9-.06c.84-.05 2.84-.05 7.8-.05l79.1.05.3.48c1.55 2.56 1.63 2.4 1.73 2.34.17.01.7-.08 1.44-.08.16 0 .38 0 .6.02l.86.12v3.28l-.23.28c-2.27 2.57-3.14 11.6-10.58 19.08a37.67 37.67 0 0 1 .33 4.8c0 1.37-.1 2.8-.4 4.08-1.28 4.9-2.6 5.74-7.6 10.47.15.88.4 2.77.4 4.8 0 1.4-.12 2.83-.48 4.1-1.78 4.4-4.9 2.4-5.1 7.47 0 0-1.4 9.73-2.7 15.92-1.3 6.12-4.47 9.7-4.4 14.37 0 .7.06 1.4.22 2.4l-.77 25.05-.4.28c-3.74 2.23-3.05 16.6-9.8 23.8v8.75l-.06.15c-2.06 5.44-6 5.12-7.6 12.12v28.5l-7.67 22.06a94.96 94.96 0 0 1 .31 7.36c0 1.98-.1 4.02-.34 5.8-1.04 7-5.66 15.53-8 19.5l-1.13 1.84c.02.2.04.42.04.63-.04 2.8-2.05 7.58-2.42 8.52-.17 1.82-1.56 4.36-2.3 5.8.97.97 1.26 1.32 1.98 1.3.12.08.82-.64 1.7-2.27l.45-.8.83.4c1.6.75 3 .98 4.42.98 2.84.04 5.86-1.06 9.65-1.06 1.03-.2 1.17-.9 1.47-2.87.25-1.84.5-4.38 2.5-6.5 3.84-4.05 12.36-4.92 14.2-6.38 10.37-7.2 14.66-3.84 21.46-14.9l.62-1.03.88.8c.88.82 1.6 1.56 2.34 2.52h12.88l.3.47c1.3 2.25 3.95 3.85 4 7.43-.5 2.7-2.5 1.82-2.56 7.64zm65-51.68c-.01 14.02-.27 27.73-1.12 31.17l-.08.35-.3.22c-1.34.8-3.26 6.64-5.12 12.77-1.9 6-4 12.42-7.27 15.88v14.6l-.4.3c-2.95 1.8-3.43 13.02-7.27 17.55v9.12l-.43.3c-.86.58-1.4 1.02-2.12 1.68v11.82l-.4.3c-2.16 1.45-1.94 2.8-4.42 2.93-.66.05-1.1-.45-1.3-.74-.25.08-.72.24-1.4.64l-1.45.8.03-15.9-7.7-25.16v-7.6c.47-5.7-12.58-10.12-12.77-22.1v-.4l.26-.3c-.02-.08 15.62-16.73 16.34-39.4l-.01-.05c.42-1.52-6.57-6.53-14.02-10.48-7.1-4-14.34-7.55-16.72-9.9h-4.6l2.2 6.45v13.86c3.42.9 5.6 5.1 7.73 5.34.54.02 1.37.66 1.33 1.45-.38 2.26-3.47 4.22-3.98 7.34l-.13.86-.88-.06c-.02 0-7.84-.5-14.23-.5-3.2 0-6.08.14-7.13.47-12.16 4.06-26 9.27-26.02 9.27l-.76.3-.43-.7c-3.3-5.56-.5-4.03-3.6-8.43l-.4-.6.4-.55c4.67-6.3 5.78-7.4 9.06-10.37.06-1.55.38-7.02 2.34-10.4 2.64-3.94 8.43-5.07 7.87-6.44.12-.28-.62-.97-2.12-1.95l-.5-.34.08-.6s.93-8.12 1.78-12.58c.3-1.2.35-1.93.68-2.62-.37-1.1-1.23-4.07-1.25-7.05.02-1.86.34-3.78 1.58-5.23.84-.98 1.65-1.4 2.33-1.9v-11.1l.4-.28c1.84-1.42 2.03-1.46 2.12-3.34-.12-.88.05-.43-.78-.93-.85-.28-2.05-1.45-1.93-3.52a10.53 10.53 0 0 1 .19-1.99c.32-1.52.4-2.73.4-3.78.02-2.47-.65-4.1-.66-6.4a10.54 10.54 0 0 1 .55-3.36c1.24-3.95 3.2-5.57 4.88-8.8-.02-.03 2.9-6.13 2.9-14.37v-.58l.5-.27c5.8-2.98 2.34-15.93 6.83-26.25 2.27-4.9 3.9-9.54 7-12.52.05-.3.08-.6.08-.9.02-1.82-.9-3.37-.95-5.36-.02-.93.28-1.95 1.02-2.85.87-1.1 1.77-1.5 2.47-2.03.47-1.66 2.84-9.53 5.53-14.42 1.6-2.83 1.6-4.42 5-7.55V80.45l.4-.3c1.63-1.22 1.55-1.45 1.94-2.2.38-.84 1.1-1.87 3.43-3.35l.2-.12.2-.02c2.38-.3 2.68-2.38 2.72-5.8l-.02-2.88c.02-3.53.58-7.9 5.53-7.92 8.57.4 7.55 14.37 8.55 15.77 6.84 14.95 8.72 12.55 9.03 16.32v7.6c-.07 6.46 9.25 30.55 9.33 30.68l8.04 31.66c.8.68 1.47 1.28 2.23 1.8l.43.28v11.15c2.1 2 2.75 3.56 2.75 4.93-.02 1.1-.35 1.83-.32 2.3.01.52.16 1.2 2.27 2.77l.4.28v15.03l-.73.15c-.02.2-.02.46-.02.76-.06 5.52 2.66 25.23 3.4 27.45l.18.12.07.45c.45 4.13.72 17.76.72 31.37zm-64-38.25c0 1.8-.1 3.34-.38 4.48l-.1.36c1.42-.15 3-.25 4.65-.25 2.36 0 4.92.2 7.48.77 7.46 1.62 11.56 6.77 16.48 8.27.58.03 1.12.03 1.62.03h.56l.37-26.73c0-5.7-.1-10.65-.35-12.54-1.62-1.88-1.5-5.4-2-9.3-.36-4.08-1.1-8.3-2.83-9.77-3-2.9-6.98-1.35-10.6-5-1.95-2.14-3.54-5.64-4.64-8.6l-.4 12-.4.27c-1.78 1.26-2.2 3.23-2.85 5.34-.54 1.84-1.7 3.95-4.45 4.43-.12 3.08-.38 13.43-2.55 16.66-.16.94-.23 2.23-.23 3.73-.01 4.67.6 11.2.6 15.83zM387.7 266.35l-1.08.3c-3.94.9-2.12 4.08-5.42 7.58-.47.73-.8 5.65-.77 11.3 0 11.4.86 26.84.88 26.88l.05 1.03h-1.04c-1.02-.13-8.13 2.7-9.4 5.07l-.3.46h-29.2l-.3-.46c-1.62-2.66-1.68-2.6-1.84-2.5-.35-.04-1.34.2-3.1.2-3.14.05-3.94 1.1-4.92 2.34-.86 1.25-1.92 3.16-4.77 3.16h-.1c-.06-.05-5.72-1.07-8.55-4.12h-19.9l-.28-.47c-1.37-2.34-2.6-2.16-2.7-4.68.28-1.28.9-1.45 1.75-2.5.7-.73 1.48-1.5 2.1-2.05v-16.64l.4-.28c2.4-1.77 2.2-1.6 2.22-2.06 0-.36-.07-1-.08-1.97-.04-.02-.01-.06-.1-.3-.08-.26-.2-.6-.4-1.02-.33-.82-.8-1.88-1.33-2.95-1-2.1-2.42-4.38-2.87-4.6l-.82-.58.6-.8c1.22-1.67 1.6-3.2 1.6-4.53.02-2.7-1.55-4.62-1.55-4.62l-.2-.23-.04-.25c-.2-1.3-.3-2.7-.3-4.12.02-8.1 2.87-17.6 2.85-22.44v-.53l-.02-.52.43-.3c2.56-1.45 1.7-9.82 4.8-16.24 2.84-5.52 9.06-12.6 8.95-12.42.86-1.52-.23-9.54 10.84-21.47.57-2.83 5.2-25.64 9.66-32.53.5-.62 1.8-1.45 3.48-2.76l2.8-2.1c.26-1.48 1.74-5.6 10.23-13.48-.37-1.4-1.24-4.98-1.25-8.98 0-2.56.35-5.27 1.48-7.7l.1-.24.2-.13c5.52-3.93 8.82-12.93 17.5-21.05V82.74l-28.12-.27c-4.2 3.96-15.3 4.4-15.4 19.06v.98h-1c-.87-.04-3.44.78-5.52 2.1-2.15 1.3-3.77 3.1-3.7 4.52v20.74c-.1 2.02-1.63 4.18-5.26 10.2l-.62 1.03-.88-.82c-1.86-1.68-2.45-3.24-2.42-4.53.02-.98.22-1.7.2-2.2-.02-.68-.15-1.38-2.16-2.87l-.35-.23-.06-.43s-.74-5.33-1.38-8.65c-.27-1.95-.4-3.83-.75-3.8l-.64-.43.27-.72c-.01-.02 2.38-6.33 2.38-12.02 0-2.85-.6-5.45-2.15-7-.86-.87-1.4-1.26-2.4-1.95l-.44-.3V70.77l.2-.25c-.01-.02 2.45-3.36 2.38-5.7 0-.17 0-.34-.02-.5l-.15-1.1h1.12l75.86.3v14.12c-.22 2.2 2.34 2.52 2.55 6.2v46.76l-.34.3c-2.4 2.02-3.15 5.5-3.13 8.75a27.46 27.46 0 0 0 .88 6.82l.2.66-.6.4c-7.46 5.2-11.27 25.9-15.75 31.24v12.03l-.6.26c-.02.02-10.35 4.47-12.25 9.8-.48 1.23-.67 2.92-.67 4.6 0 3.33.7 6.58.7 6.58l.18.8-.77.3c-8.45 3.16-22.03 41.16-21.76 43.34v6.9l-1.05.1.55.5s-.03.02-.08.12c-.12.17-.28.5-.48.95-.4.87-.9 2.18-1.52 3.75l-4.3 11.86c-3.02 8.28-6.15 16.84-8.23 20.04 1.4 2 1.52 2 1.6 1.92.26.01 1.04-.16 2.3-.16 2.26.08 3.2-1.28 13-6.14 2.1-.73 4.63.72 12.15-2.77 1.17-.32 4.22-6.02 7.9-11.36 3.62-5.12 8.32-10.3 14.64-10.8.4-2.7 2.02-8.22 4.7-10.82l.9-.86.62 1.07c.48.84.86 1.4 1.36 2.05 8.12-3.75 4.5-7.74 8.75-12.9l.28-.34H386l-.04 1.02s-.04 1-.04 2.52c-.02 3.4.23 9.54 1.34 12.12l.44 1.05zm-218.18 17.17c-.02 3.1 1.77 9.3 1.77 15.18 0 1.38-.08 2.73-.33 4.05-.98 5.24-4.3 12.65-4.4 12.85 0 .01-5.3 7.6-7.36 12.88-2.52 6.34-3.55 17.52-3.55 17.52l-.05.57-.52.25c-.02.02-10.63 4.9-16.48 9.25-5.24 3.84-10.55 7.2-11.8 10.76l-.2.57-.57.08s-12.55 1.8-16.26 3.23c-.5.16-.7.3-.7.32-.72.9-1.5 1.5-2.48 1.52-2.93-.55-3.62-3.95-5.6-3.7-.76-.01-2 .45-3.77 2.17-1.27 2.66-5.1 2.74-9.33 2.87-6.28 0-13.84-1.17-15.52-1.46-.9.43-1.9.47-3.05.48-2.77 0-6.36-.6-8.35-.6-.47-.01-.84.04-.98.08l-.53.94-.9-.84c-1.13-1.02-2.6-2.38-3.06-2.66l-1.63-1.08 1.82-.66c0-.02 5.94-2.32 7.74-4.06l-.02-.02c.02 0 0 0 .02-.02.05-.1.12-.24.2-.43.18-.43.4-1.05.65-1.8.48-1.52 1.06-3.6 1.66-5.98 1.22-4.7 2.5-10.48 3.33-14.8 0-14.97.9-22.66.9-30.5 0-3.9-.22-7.9-.88-12.92-.24-1.83-1.05-15.64-2.25-25.64 0-16.17.92-32.77.92-42.56 0-1.87-.04-3.5-.12-4.8l-.04-.95.94-.1c2.03-.15 2.87-1.76 3.1-2.27l-.6-12.8-1.97-4.13.27-18.7c.35-2.7 2.45-5.52 2.42-5.48.22-.3.45-2.1.4-3.9 0-2.48-.23-5.16-.3-5.92l-2.8-4.62v-65.06l.42-.3c2.44-1.77 2.4-1.77 2.34-2.1.02-.43-.2-1.48-.2-3.32 0-1.85.1-2.75.1-3.02l-.06.02c-.25-.23-.73-.66-1.42-1.52-.53.05-1.35.1-2.2.14-.12.27-.38.58-.9.62-.7-.16-.82-.3-1.1-.55h-.08c-.3 0-.45.02-.8-.06-.04-.08-.57.04-.77-.98.1-.47.23-.68.35-.78-.55-.6-1.08-1.2-1.27-1.45l-8.48-8.12c-1.12-1.84-1.66-2.23-1.88-2.36-.2-.02-1.12-1.08-.86-1.7l.02-2.66c.03-2.44-.1-3.1.54-4.02.55-.66.9-.66 2.17-2.7l.3-.5H69.1c1.84-1.3 5.74-1.66 10.22-2.32 4.8-.6 9.74-.96 11.4-.96l13.52.45c13.63-.02 18.65-1.33 25.82-1.34 3.2 0 6.78.27 11.68 1.06l.64.1.16.63c1 3.97 4.9 5.65 6.8 7.3.34-.05.86-.1 1.48-.1 1.7 0 4.3.3 6.66 1.9 8.52 5.8 13.16 19.73 13.2 27.08 0 7.34 1.66 14.2 1.67 19.68 0 3.2-.6 6.06-2.5 7.9l-9.5 17.77c-3.55 6.68-12 16.86-14.87 20.27.18.34 1.1 1.6 2.9 2.57 2.06 1.2 5.06 2.32 8.73 2.7 2.3.37 3.4 2.27 3.3 3.97-.05 3.38-2.66 7.12-2.94 7.48-.05.02-.2.25-.2.78-.02.66.27 1.64.66 2.34.4.76.9 1 .95.98 0 0 .1.05.42-.42l.63-1.02.87.84c3.93 3.85 4.44 4.95 4.53 6 .08.35-.7-.33 2.38 2.05l.53.4-.15.64c0 .02-2.12 8.62-2.12 17.48 0 4.4.52 8.87 2.05 12.3.7 2.1 5 3.22 5.4 6.44 0 .7-.3 1.35-.8 1.94l.03 6.02-.03 4.9c0 .34-.02.66-.02 1 0 8.05 1.5 15.76 1.5 22.8 0 5.5-.95 10.66-4.38 15.1-.08.15-.26.68-.23 1.54zM134.48 107.1c.08-.27-.18-.84.55-1.23l3.7-2.6c-4.22-1.43-7.88 1.13-11.45-6.1l-1.16-.02-11.32 1.62.7-1.6c.12-.3.2-.58.2-.86-.3.16-.62.3-.95.45-.62 1.83-.53 2.7-.57 3.62.02 1.17-.68 2.3-2.54 3.32v48.88c1-.33 1.88-.45 2.6-.45h.1c1.4 0 2.4.6 2.76.84 5.1-1.52 2.95-14 17.45-15.74l-.08-5.7c.18-5.76-.02-12.8 2.5-15.6-.64-1.76-2.46-6.86-2.5-8.83zm2.08 174.17c.06-1.7.96-3.23.9-4.34-.03-.67-.14-1.13-1.1-1.8l-1.25-.78 1.2-.85c.72-.52.94-1.06.96-2.04.1-3-3.37-8.32-3.44-13.32-.02-2.26.82-4.55 3.05-6.3-.1-6-.98-6.8-1.82-7.7-1.1-1.04-2.45-2.55-2.36-7.95.08-2.8 2.54-7.9 2.5-10.87-.03-1.1-.27-1.55-.72-1.78l-.86-.46.42-.86c.5-.95.66-1.84.66-2.72.02-3.16-2.42-5.9-2.44-5.9l-1.4-1.55 2.08-.1c.32-.02.54-.06.63-.1-.1-.6-1.84-2.5-2-4.34-.03-.54.27-1.23.7-1.44.28-.3.37-.55.38-.94.18-2.02-4.12-6.06-4.02-5.96-4.9-2.67-10.52-8.1-10.58-8.14l-6.32-6.52.2 14.85c0 4.02-.07 7.76-.27 10.02l-.03.3-.2.23c-.95 1.13-1.4 3.54-1.4 6.2-.02 5.34 1.58 11.57 1.58 11.57l.06.23-2.72 13.2-.48.2c-1.27.55-1.8 1.27-1.94 2.63-.02.13-.03.23-.03.3.03 1.33.66 2.3 1.98 2.84l.6.25v48.24l-.24.3c-1.34 1.45-2.16 1.76-2.32 2.97-.16.9-.27 1.52-.38 1.95-.2.26-.03.56-.42.86.06 2.47.14 8.16.14 20.37.02 0 .2 6.3.35 8.94.1.07.2.15.25.23.22.28.22.52.22.63-.18 1.15-1.47 3.2-2.88 5.96l-1.84 3.34c1.95-.26 4.96-.77 6.82-1.47l5.97-5.4.34-.02c4.3-.08 9.72-9.16 13.34-11.94 3.67-3 2-13.4 3.6-21.88l.07-.38.24-.17.02-.01a12.56 12.56 0 0 1 .22-.46c.17-.43.4-1.04.65-1.76.5-1.45 1.07-3.4 1.63-5.4 1.1-3.97 2.05-8.4 2.03-9.57v-.02a3.52 3.52 0 0 1-.3-1.39zm527.73 43.8a7.34 7.34 0 0 1 .98 3.7c0 1.32-.3 2.84-1.06 4.73-1.4 3.23-.5 4.14-6.62 33.87l-.22 1.05-1.02-.3c-.1-.1-9.3-2.76-11.66-4.98-13.6-13.22-17.16-13.98-22.9-14l-3.68.01c-.1 0-.2.02-.23.02l-.77.08-.27-.68c-.12-.33-.16-.62-.16-.96.08-4.6 7.66-21.9 9.02-29.3.6-3.1 1.05-16.1 1.05-24.88 0-3.98-.1-7.23-.3-8.3v-.1c.01-1.33-1.56-12.26-4.1-22.8-2.32-10.56-6.4-21.04-9.06-21.25l-.86-.22.12-.88c.77-6.1 2.43-14.42 2.42-17.65.02-.6-.04-.9-.07-.93-3.76-7.15-11.35-21.38-15.73-23.34.16 1.3.3 2.38.3 3.5 0 2.46-.72 4.8-3.04 9.7-1.02 2.04-2.52 4.14-2.48 5.67 0 .1 0 .16.02.23l.05.27-.1.2v.35c-.02 6.73 6.57 60.36 6.58 65.38v.12l.06.6-.53.32c.02.03-.02.05-.17.2-.14.17-.34.4-.5.7-.38.57-.7 1.32-.7 2.04 0 .1 0 .14.02.23-.16.58 1.9 2.02 2.23 4.53.25 3.15.5 6.85.5 10.63 0 5.47-.5 11.1-2.3 15.43.33 5.62 2.67 19.7 2.67 26.37 0 .9-.03 1.68-.15 2.34l-.03.22-.15.2c-.88 1.3-1.3 1.35-2.28 2 .13 1.05.4 2.62.4 5.1 0 3.4-.5 8.54-2.43 16.75l-.75 3.24-1.13-3.13c-5.62-15.3-14.4-24.55-21.8-30.5-7.42-6.2-13.4-8.03-13.93-11.84.13-.14 8.95-31.7 12.88-35.45.33-.52.56-2.03.55-3.7 0-2.4-.35-5.24-.62-7.07-.75-.68-1.3-1.14-2.18-1.73l-.47-.3.04-.56c.03-.53.03-8.72.03-19.23l-.03-51.64c-.95-1.73-.45-4.37-.95-5.1l.03-.02-.38-.26-1.23-10.94c-1.07-1.56-1.73-4.5-2.15-4.55l-.43-.3-.02-.5-.06-5.4c0-1.2 0-2.4.06-3.36-.55-.94-.57-2.05-.8-3.4-.2-1.54-.48-3.2-.73-3.8l.02-.06-.47-.32.05-.55s.01-.3.01-.88c.02-1.65-.2-5.38-1.2-7.47-1.02-1.33-.73-3.16-1-5.62-.08-2.16-.3-4.6-.5-5.1l-.3-.22-.15-13.17c-2.1-2.1-2.65-3.3-2.66-4.4.01-.43.08-.7.07-.8.01-.02.05-.44-2.1-2l-.35-.26-.04-.4c-.4-3.1-.6-7.48-.6-11.87 0-4.4.2-8.8.6-11.9l.02-.33.23-.23c4.22-4.13 15.96-10.02 23.8-20.9-2-.73-7.24-2.1-8.32-2.3-.1.08-.25.27-.44.5-.36.46-.88 1.2-1.88 1.5-.9.25-1.6.67-2.73.7-.8 0-1.6-.24-2.5-.77l-.48-.27-.03-.53c-.18-4.04-4.73-9.15-9.5-13.12-4.38-3.73-8.44-6.3-9.8-7.45l-9.33-2.02.18-1.95 37.02-1.02c3.34-1.54 4.04-1.77 6.46-1.73 2.5-.13 3.02.96 4.34 2.76h13.48l.16.27c.15.05.35.16.62.23.56.23 1.38.5 2.35.84l7.1 2.3 10 3.12c.62 0 1.48-.04 2.44-.04.92 0 2 .03 3.1.2 4.43.6 8.42 3.48 11.66 6.14 3.05 2.67 5.93 5.1 6.1 4.9h.62l13.1 27.62c.4 1.2.45 3.28.47 5.76 0 4.75-.37 10.55-.37 10.55l-.06.5-.37.27c-.02 0-.62 1.2-.96 2.52-.4 1.18-.62 2.3-1.2 3.16.04 1.45.05 3.06.05 4.57 0 3.3-.05 6.2-.12 6.43-4.77 18.83-13.65 33.96-30 34.58l.07 4.64c.04 2-.52 2.4-1.6 3.44.23.02.44.02.66.02 1.92.02 3.53-.7 5.68-.74 3.04 0 6.35 1.7 11.88 8.36 3.67 1.68 2.76 6.2 3.28 7.9.16.64.27.7.45.76 1.97.73 3.05 1.16 3.8 1.56.74.34 1.3 1.25 1.2 1.87-.02.36-.06.6-.04.9 0 .55.08 1.37.82 2.93.78 1.96 1.03 7.9 2 8.55 1.02 1.93 1.05 7.8 1.33 14.04.15 6 .7 12.54 1.05 12.6v.01c.66.6.5 1.14.76 1.84.16.84.3 1.82.52 2.77.36 2.05 1.16 3.27 1.62 3.2.16 0 .52-.1 1.05-.43l.88-.57.5.92c1.3 2.5 4.48 27.95 4.87 29.98l.05.4-.2.34c-.64.65-1.6 8.2-1.6 9.4.18.3 1.08.62 2.62 1l.4.1.2.34c.98 1.64 3.3 6.73 3.45 9.4l.12.36-.3.4c-.84 1.22-1 1.87-1 2.6-.03 1.38.97 3.57.97 8.55 0 3.1-.38 7.27-1.6 13.32.03 0 .01.01.12.16.15.25.37.58.6 1zm-46.7-183.28c0-2.75.57-5.56.58-5.6l.23-1.2.6.26a11.12 11.12 0 0 0 .34-.84c.33-.68.4-1.4.95-2.03l.04-5.36c-.02 0 .3-1.07.3-2.97 0-2.4-.5-6.02-2.7-10.03-.04-.05-3.9-5.52-8.52-11-4.53-5.52-10.3-10.92-12.48-10.73l-1.6-.04h-.55v75.58a39.91 39.91 0 0 0 3.04.12c.98.02 2.04-.05 2.83-.2 4.16-.74 8.57-3.76 9.62-5.17 2.36-2.9 5.7-14.6 7.44-18.88-.1-.6-.1-1.25-.1-1.92zm143.94 30.5c-.03 5.58-.23 10.34-1 12.66l-.12.3-.24.2c-.7.25-1.95 4.65-3.5 6.62a22.6 22.6 0 0 0-.07 1.88c0 3.05.42 6.68.42 10.2 0 3.07-.3 6.05-1.62 8.54-2.22 5.1-5.02 7.86-5.98 8.8l-1.66 12.6c-2.4 6.2-.96 7.44-1.88 9.26.17 2.4 1.47 21.6 1.47 36 0 6.32-.23 11.67-1.03 14.7-1.74 4.05-1.97 8.48-1.97 13.15l.02 3.83c-.02 4.85-.2 9.9-2.13 14.72l-2.67 14.4c-2.25 6.2-2.3 7.52-5.32 11.2-1.34 2.77-1.93 3.6-2.73 4.18-.73.5-.84.3-2.1 1.74-1.13 2.96-6.37 3.78-12.38 5.7-6.38 1.74-13.66 3.58-17.23 5.5-.27.08-.5.1-.73.1-2.72-.16-6.2-3.27-7.48-3.1-.16 0-.16.02-.18.03-1.07 1.95-3.92 2.37-7.27 3.17-3.57.7-7.67 1.12-10.27 1.12-1.18-.01-1.9-.01-2.64-.34l-1.16-.63.95-.93c3.74-3.75 7.52-10.05 8.2-17.54.02-.4.04-.84.04-1.3.02-5.86-3-13.98-3-13.98l-.34-.9.88-.34c3.67-1.32 11.37-4.93 10.83-6.3 0-.77-.15-1.1-.2-1.13-.04-.02 0 0-.12-.04-.04-.02-.12-.02-.25-.02-.48 0-1.48.02-2.03-1.14l-2.97-7.35-5.22-12.02 4.73-46.83c-5.88-6.43-11.34-24.85-11.5-26.62v-7.6c.23-2.2-2.3-2.54-2.55-6.15 0 0-.6-9.2-.6-16.22.02-3.04.06-5.5.45-7.06a15.56 15.56 0 0 0-1.96-1.55l-.48-.3 1.05-17.84c-.57-1.02-.6-2.34-.94-4.03-.3-1.85-.6-3.9-.9-4.66l.02-.1-.45-.3V114.3l.45-.3c.82-.56 1.37-1.07 2.1-1.72v-20.1l.45-.3c.82-.55 1.37-1.07 2.1-1.7V75.84L646 53.9l-1.27-1.6h14.75l.3.5c.5.9.96 1.5 1.55 2.27h8.63l.16.8c-.16 2.56 12.14 4 18 10.26h8.43l.28.48c.88 1.48 1.67 2.27 2.8 3.66h8.4l.3.5c.52.9.96 1.5 1.55 2.27h10.96l.27.48a16.37 16.37 0 0 0 1.54 2.27h11.9l.3.48c3.8 6.23 11.27 10.3 12.83 13.2 8.7 18.25 6.93 19.84 9.9 21.75l.43.3-.72 26.4c.64 1 .9 2.46 1.47 4.2.54 1.88 1.16 3.96 1.46 4.37l.3.2.02.5c0 .02.97 13.97.97 25.08zm-38.75 43.4c-.02-7.1 3.7-10.15 5-10.98.47-2.64 2.3-15.08 6.05-18.42V161c-1.88-1.64-2.7-5.1-3.6-8.58-.88-3.67-1.68-7.64-1.97-7.93-2.96-4.4-9.12-5.95-9.73-12.77-6.1-.66-6.9-5.94-9.3-5.45-4.87-.02-7.38-.37-11.05-.37-1.16 0-2.45.02-3.93.12l-1.02 9.57.73 3.3 1.07 38.23-.02 2.24c0 .02.04.04.05.06.27.48.57 1.1.84 1.73l1.1 2.47.05.2v.2c-.2 3.1 3.12 15.4 4.6 15.73l.52.27-.37 122.1c3.78-4.63 12.28-16.46 12.24-28.3l.01-1.6c2.87-9.78 6.03-13.06 6.98-18.63 0-.02-.02-.1-.02-.23.05-3.06-.04-50.16 1.77-56.38.04-.44.01-.86.01-1.28zm-434.2 105.57l-1.6-.62c-1.78-.7-2.7-.8-3.75-.82-.52 0-1.1.05-1.77.05h-.5l-.2-.26c-.06-.02-.16-.04-.3-.04-.55 0-1.76.22-3.88 1.3l-.53.27-.47-.34c-.72-.6-5.12-1.1-10-1.05-7.6-.03-17.2.88-19.77 1.94-3.63 3.53-4.6 4.4-5.97 4.57h-.04c-.56 0-.98-.38-1.06-.47l.03-.03c-.02 0-.02.02-.02.02-1.64-.5-1.73-1.77-3.53-2.9l-.86-.6.65-.8c7.36-9.23 3.26-6.44 11.7-12.1 1.98-6.03 2.2-26.83 2.17-33.1v-2.4l.43-.28c2.32-1.75 2.2-1.75 2.23-2.38.01-.44-.1-1.2-.1-2.34.22-1.84-2.48-3.38-2.55-8.3.07-3.42 1.15-8.4 3.38-10.88l-.82-109.17.38-.3c.82-.67 1.44-1.06 1.85-1.34l.38-.22c-.01-.08-.01-.2-.03-.3.08-.42-.68-.56-2.12-1.4l-.4-.3-3.3-55.55c-.62-2.42-2.82-3.23-5.4-3.98-2.1-.63-4.8-1.2-5.43-3.6-2.4-.02-3.35-.17-4.2-1.07-.7-.82-.8-1.5-3.22-3.27l-.83-.6.62-.8c.95-1.23 2.2-2.8 2.48-3.32l.37-.68.75.2c2.58.74 14.4 1.25 25.55 1.23 10.23.02 20.37-.45 22.33-1.2l.76-.3.42.73c.95 1.6 1.8 2.36 3.1 4l.22.27V74l-.72.2c-6.24 1.67-13 7.42-12.86 12.2.1 3.8.5 3.53.76 3.75.76.25 1.98 1.42 1.8 4.55.05 2.48-1.3 3.83-2.3 4.56-1.03.84-1.5 1.05-1.54 2.35 0 8.23 1.16 30.37 1.16 49.13 0 9.1-.28 17.4-1.08 23.05.86.9.84 2.17 1.14 3.5.27 1.62.5 3.4.83 4.04.06.17.07.16.07.16l.4.23 1.4 8.1-.52.36c-1.02.7-1.6 1.05-2.38 1.92-1.45 1.56-1.9 3.9-1.9 6.23 0 2.44.46 4.7.48 6.13-.04.73-.27 1.27-.27 2.97 0 1.38.16 3.5.84 6.6.3 1.66-.02 5.1.37 6.9.1.6.2.75.24.73l.4.23.06.47c.26 1.66.34 3.38.34 4.95 0 3.14-.32 5.68-.34 5.7l-.05.44-.38.26c-1.02.68-1.54 1.07-2.4 1.93-1.72 1.78-2.17 3.07-2.2 4.57-.06 3.03 2.46 7.25 2.48 14.7v1.02c.2 1.45 2.7 8.7 3.5 9.62l.4.3-1.38 19.4-.4.27c-1.1.73-1.64 1.02-2.32 1.88a4.57 4.57 0 0 0-1.08 2.98c0 1.6.7 3.54 1.25 5.84 2.1 8.7 1.4 3.87 17.37 15.38l.33.23 1.3 9.4zm90.56 55.7h-35.8l-.3-.5c-.52-.88-.97-1.48-1.55-2.27h-8.38l-.28-.47c-1.52-2.38-2.1-2.4-2.6-2.45-.34-.01-.84.12-1.52.14-1.27.01-2.73-.63-4.45-2.76h-24.53c-4.02-.23-5.04-2.5-5.76-3.67-5.08-.42-37-.48-53.86-.48h-11.14l-.3-.45c-.9-1.9-7.27-3.8-7.46-3.68h-9.3c-1.86 1.22-14.88 9.7-15.98 13.17l-.3.77-.8-.14c-.02 0-8.22-1.37-15.1-1.37-3.43-.02-6.58.4-7.87 1.23l-.88.55-.5-.9c-.6-1.02-1.06-1.6-2.27-2.43l-.87-.62.66-.8c1.82-2.34 1.65-1 2.36-4.4l.1-.5 7.5-3.98c2.94-2.9 2.53-1.64 9.03-7.55v-11.87l.43-.27c.66-.4 2.17-1.27 2.13-2.63.01-1.06-.74-1.64-2.15-2.66l-.4-.3v-21.07l.43-.3c.82-.55 1.4-1.05 2.13-1.7v-9.05l.4-.3c2.4-1.75 2.2-1.6 2.2-2.07 0-.34-.07-1-.07-1.95.02-3.32-2.44-5.22-4.7-6.82l-.4-.3-.07-35.15.6-.26c1.72-.82 1.1-.5 2-1.93-.45-3.32-.6-6.45-.6-9.16 0-5.6.65-9.42.66-9.46l.07-.42.35-.23c.82-.55 1.38-1.06 2.12-1.7V206.1l.44-.28c.6-.3 2.93-3.58 2.84-6.04 0-.13-.01-.3-.01-.44-.16-2.12-2.1-4.6-2.84-5.04l-.44-.28v-38.8c-.72-.66-1.26-1.12-2.12-1.7l-.43-.3v-21.08l.4-.3c2-1.4 2.85-2.73 4.73-4.5.12-1.47.54-6.9.54-11.76 0-2.66-.13-5.18-.47-6.62-.78-.7-1.33-1.17-2.23-1.77l-.88-.6.66-.82c1.12-1.33 4.35-9.8 4.27-12.24v-.2c-.6-7.1-4.34-14.12-4.4-14.24-.12-.95-3.1-1.58-5.1-1.48-.4 0-.76.02-1.03.02l-.2.4-.9-.5c-3-2.25.98-3.77-12.88-13.88l-.84-.62.64-.8c1.83-2.32 1.65-1 2.35-4.4l.16-.8h4.57l.3.5c.52.9.95 1.5 1.54 2.27h20.53l.3.47c2.93 4.73 4.73 5.3 5.9 5.3.84.02 1.6-.4 2.73-.44.4 0 .86.1 1.52.6.03 0 8 9.9 11.32 12.25l.4.28v25.9l-.42.3c-1.84 1.4-2.05 1.45-2.13 3.34v.16l-.02.06c-.01.17.22 1.95 4.72 5.2l.4.28v12.1l-.43.3c-.84.56-1.38 1.02-2.1 1.68V182c2.3 2.02 3.62 2.12 5 4.84 1.2 2.55 1.45 9.2 1.48 17.48 0 16.43-1.38 38.3-1.38 38.3l-.04.48-.4.28c-.86.58-1.4 1.03-2.13 1.7v18.47c.77.65 1.43 1.22 2.15 1.7l.34.23.07.4c.18 1.03.22 2.88.23 5.07 0 4.32-.22 9.65-.22 9.67l-.04.8-.8.12c-3.12.5-2.88 2.56-4.18 6.5 1.93 2.75 2.48 2.3 2.44 4.84v.83c.2 3.1-.52 3.52-2.54 5.3v11.8l-.43.3a18.44 18.44 0 0 0-2.12 1.68v17.37l-.4.3c-1.64 1.2-1.58 1.7-2.2 3.62-.14.45-.2.73-.2.85-.7.16 2.65.18 2.8 7.55 4.7.1 8.18.67 12.52.67 2.2 0 4.66-.16 7.64-.6 2.12-3.27 3.18-3.64 7.36-6.28.38-.08.77-.14 1.17-.14 4.37.08 12.2 3.97 20.86 3.95 4.13 0 8.38-.86 12.46-3.43.55-1.6 2.15-1.66 4.26-2.2 2.37-.47 5.62-.8 9.6-1.05 7.88-.5 18.4-.7 29.12-.7 22.78 0 46.32.8 46.34.8l.95.02v32.72l.03-.02c.07.16.2.4.3.7.27.6.7 1.43 1.16 2.38.94 1.88 2.2 4.22 3.45 6.1l1 1.56zm393.4-307.8c0 3.2-1.56 7.5-12.16 7.5-10.62 0-12.3-4.3-12.3-7.5v-10.2c0-3.1 1.66-7.5 12.3-7.5 10.6 0 12.16 4.4 12.16 7.5v10.2zm-2.14-10.4c0-2.42-1.66-5.3-10.02-5.3-8.38 0-10.12 2.88-10.12 5.3v10.57c0 2.42 1.73 5.37 10.12 5.37 8.36 0 10.02-2.88 10.02-5.3V58.77zm-13.23 7.46v5.2c0 .28-.1.52-.43.52h-1.27c-.35 0-.47-.23-.47-.52V57.16c0-.34.12-.5.47-.5h5.47c4.4 0 5.5 2.12 5.5 4.1v1.38c0 1.48-.7 3.12-2.95 3.8l2.38 5.48c.1.28-.13.52-.48.52h-1.34c-.27 0-.4-.23-.5-.52l-2.2-5.2h-4.16zm0-7.85v6.12h3.52c2.5 0 3.55-1.2 3.55-2.5v-1.15c0-1.27-1-2.48-3.55-2.48h-3.52z"/><path fill="#fff" d="M98.34 425.9h-20.2v-27.4l19.94.03v5.02l-13.1-.02v5.75l12.48.02v5.02H84.98v6.6h13.37v5zm57.58.06l-5.74-.01-15.15-17.58v17.54h-6.83v-27.4l6.26.02 14.63 16.77v-16.75l6.83.02v27.4zm55.5-22.33l-9.92-.02V426h-6.82v-22.4h-9.92v-5.02l26.66.02v5.05zm49.04 22.4l-20.2-.02v-27.4l19.9.04v5.02l-13.1-.02v5.74h12.5v5.02h-12.5v6.6l13.4.02v5.03zm42.05-27.37c5.62 0 8.98 3.8 8.98 7.9 0 3.02-1.57 5.26-4.7 6.7 2.82 1.4 3.66 4.8 7.5 12.84h-7.5c-2.94-5.86-4.02-11.13-7.72-11.13l-1.96-.02v11.14l-6.83-.02v-27.4l12.23.01zm-5.4 11.23h3.6c1.88 0 3.74-.8 3.74-3.12 0-2.05-1.34-3.1-3.9-3.1h-3.45v6.2zm67.75-6.18h-9.9v22.36l-6.82-.01V403.7h-9.92v-5.02l26.66.05v5zm52.88 22.42l-7.37-.02-2.24-5.4h-12.25l-2.05 5.43-7.23-.02 11.05-27.38 7.92.02 12.17 27.4zm-16.04-20.87l-4.02 10.62 8.44.02-4.42-10.64zm50.88 20.88l-6.84-.01v-27.4l6.84.01v27.4zm58.65.07h-5.74l-15.15-17.6v17.58l-6.82-.02v-27.4l6.26.02 14.62 16.77V398.8l6.83.02v27.4zm54.28-27.35h5.97v27.4l-6.83-.02v-17.1l-7.4 8.6h-1.04l-7.4-8.6v17.1l-6.83-.01v-27.4l5.95.01 8.8 10.18 8.8-10.14zm56.92 27.42l-20.22-.03v-27.4l19.93.04v5.02h-13.1v5.73l12.48.03v5.02l-12.48-.02v6.6l13.38.02v5.02zm57.57.08l-5.75-.02-15.14-17.6v17.57h-6.83v-27.4h6.26l14.63 16.78v-16.76l6.83.02v27.4zM735.5 404h-9.92v22.38l-6.84-.01V404h-9.92v-5.02l26.68.04v5.02z"/></svg>