<svg xmlns="http://www.w3.org/2000/svg" viewBox="0 0 64 64"><g xmlns="http://www.w3.org/2000/svg" id="character-download"><path d="M32 22.819c6.092 0 11.032-4.879 11.032-10.898S38.092 1.023 32 1.023c-6.093 0-11.033 4.879-11.033 10.898S25.907 22.819 32 22.819zm21.558 11.193c.477 0 .86.385.86.859v11.853h7.228L49.239 60 36.874 46.724h7.228V34.871c0-.474.383-.859.86-.859h8.596"/><path d="M33.216 50.132a4.998 4.998 0 013.658-8.408h2.229v-6.853a5.866 5.866 0 015.859-5.859h8.597c.659 0 1.291.114 1.882.316a6.117 6.117 0 00-5.897-4.421H14.456c-3.384 0-6.129 2.711-6.129 6.054v8.526c7.696 2.525 10.802 7.26 10.802 15.715v7.775h25.74v-.333L33.216 50.132z"/></g></svg>