<svg xmlns="http://www.w3.org/2000/svg" viewBox="0 0 64 64"><path d="M53.722 10.084C47.864 4.226 40.076 1 31.791 1c-8.283.001-16.072 3.226-21.931 9.084-12.092 12.092-12.092 31.766 0 43.856 6.046 6.046 13.988 9.069 21.931 9.069 7.942 0 15.885-3.023 21.931-9.069 12.092-12.091 12.092-31.764 0-43.856zm-3.886 39.971c-9.95 9.949-26.139 9.949-36.089 0-9.949-9.948-9.949-26.136 0-36.086 4.821-4.82 11.229-7.474 18.045-7.474 6.817 0 13.225 2.654 18.045 7.474 9.948 9.949 9.948 26.137-.001 36.086zm-27.08-3.474l.049 3.263h18.712l-.015-3.263H22.756zm14.799-29.455H26.143v12.719H19.4l12.382 15.376 12.4-15.312-6.628-.064.001-12.719z" xmlns="http://www.w3.org/2000/svg" id="download"/></svg>