<svg xmlns="http://www.w3.org/2000/svg" viewBox="0 0 64 64"><path d="M59.63 4.444H41.435c-1.861 0-3.369 1.469-3.369 3.28 0 1.812 1.508 3.281 3.369 3.281h8.772L30.152 30.529a3.862 3.862 0 000 5.567 4.087 4.087 0 002.859 1.154 4.087 4.087 0 002.859-1.154l20.391-19.852v9.196c0 1.812 1.508 3.28 3.369 3.28S63 27.252 63 25.44V7.725c0-1.812-1.508-3.281-3.37-3.281zm-3.369 47.895a.666.666 0 01-.674.656H8.413a.666.666 0 01-.674-.656V18.222c0-.362.303-.656.674-.656h17.015l6.74-6.561H8.413C4.326 11.005 1 14.243 1 18.222v34.117c0 3.979 3.326 7.217 7.413 7.217h47.174c4.087 0 7.413-3.238 7.413-7.217V35.936h-6.739v16.403z" xmlns="http://www.w3.org/2000/svg" id="external"/></svg>