<svg xmlns="http://www.w3.org/2000/svg" viewBox="0 0 64 64"><g xmlns="http://www.w3.org/2000/svg" id="open-table"><path d="M6.159 11.902H.417v45.939c0 3.158 2.584 5.742 5.742 5.742h45.939v-5.742H6.159V11.902z"/><path d="M57.841.417H17.644c-3.158 0-5.742 2.584-5.742 5.742v40.197c0 3.158 2.584 5.742 5.742 5.742h40.197c3.158 0 5.742-2.584 5.742-5.742V6.159c0-3.158-2.584-5.742-5.742-5.742zm0 45.939H17.644V6.159h40.197v40.197z"/><path fill="none" d="M57.841 29.206h9.474v4.82h-9.474zm0-10.562h9.474v4.82h-9.474z"/><path d="M23.375 14.25h3.792v4.015h-3.792zm8.496 0h20.227v4.015H31.871zm-8.496 10h3.792v4.015h-3.792zm8.496 0h20.227v4.015H31.871zm-8.496 10h3.792v4.015h-3.792zm8.496 0h20.227v4.015H31.871z"/></g></svg>