<svg xmlns="http://www.w3.org/2000/svg" viewBox="0 0 64 64"><path d="M5.789 20.19c-.761-2.002 1.802-1.842 1.802-1.842h7.206c1.681 0 1.962 1.321 1.962 1.321 4.244 9.088 6.686 11.29 6.686 11.29 3.003 2.522 2.949-3.083 2.963-3.603.093-3.496-.133-5.872-.681-6.926-.547-1.054-2.322-1.241-2.322-1.241-.52 0-.04-.681-.04-.681 1.161-1.641 4.391-1.481 6.165-1.521 5.271.013 5.725.56 6.005.681 1.321.974 1.014 2.015 1.028 2.776.013.761-.667 10.236.974 11.036 1.641.801 5.405-6.005 5.405-6.005 2.843-5.485 2.923-6.125 2.923-6.125.44-1.121 1.361-.921 1.361-.921 8.688-.12 5.568-.16 8.209-.16s2.4.24 2.681.601c.601 1.161-.52 3.043-.52 3.043-3.603 5.805-6.846 9.769-6.846 9.769-1.722 2.442-.881 3.163-.44 3.683 6.446 6.286 7.206 7.807 7.206 7.807 1.001 1.481.826 2.122.826 2.122-.265 1.561-2.587 1.601-2.587 1.601-6.366.12-7.607.12-7.607.12-2.322 0-4.484-2.522-4.484-2.522-3.083-3.163-3.003-3.883-4.364-4.364-2.202-.841-2.722 3.123-2.722 3.123-.12 1.361-.06.821-.12 2.042-.06 1.221-1.371 1.491-1.922 1.561-.55.07-3.783.08-6.035-.15-6.976-1.211-12.021-7.897-12.021-7.897C10.073 30.599 5.789 20.19 5.789 20.19z" xmlns="http://www.w3.org/2000/svg" id="social-vkontakte"/></svg>