<svg xmlns="http://www.w3.org/2000/svg" viewBox="0 0 64 64"><g xmlns="http://www.w3.org/2000/svg" id="social-instagram"><path d="M32 6.13c8.426 0 9.424.032 12.751.184 3.077.14 4.747.654 5.859 1.087 1.473.572 2.524 1.256 3.628 2.36 1.104 1.104 1.788 2.155 2.361 3.628.432 1.112.946 2.783 1.087 5.859.152 3.328.184 4.326.184 12.752s-.032 9.424-.184 12.751c-.14 3.077-.654 4.747-1.087 5.859-.572 1.473-1.256 2.524-2.36 3.628-1.104 1.104-2.155 1.788-3.628 2.361-1.112.432-2.783.946-5.859 1.087-3.328.152-4.326.184-12.752.184s-9.424-.032-12.751-.184c-3.077-.14-4.748-.654-5.859-1.087-1.473-.572-2.524-1.256-3.628-2.36-1.104-1.104-1.788-2.155-2.361-3.628-.432-1.112-.946-2.783-1.087-5.859C6.162 41.424 6.13 40.426 6.13 32s.032-9.424.184-12.751c.14-3.077.654-4.748 1.087-5.859.572-1.473 1.256-2.524 2.36-3.628 1.104-1.104 2.155-1.788 3.628-2.361 1.112-.432 2.783-.946 5.859-1.087C22.576 6.162 23.574 6.13 32 6.13m0-5.686c-8.57 0-9.645.036-13.01.19-3.359.153-5.653.687-7.66 1.467-2.075.806-3.835 1.885-5.589 3.64-1.754 1.754-2.833 3.514-3.64 5.589-.78 2.007-1.314 4.301-1.467 7.66C.48 22.356.444 23.43.444 32s.036 9.645.19 13.01c.153 3.359.687 5.653 1.467 7.66.806 2.075 1.885 3.835 3.64 5.589 1.754 1.754 3.514 2.833 5.589 3.64 2.007.78 4.301 1.314 7.66 1.467 3.366.154 4.44.19 13.01.19s9.645-.036 13.01-.19c3.359-.153 5.653-.687 7.66-1.467 2.075-.806 3.835-1.885 5.589-3.64 1.754-1.754 2.833-3.514 3.64-5.589.78-2.007 1.314-4.301 1.467-7.66.154-3.366.19-4.44.19-13.01s-.036-9.645-.19-13.01c-.153-3.359-.687-5.653-1.467-7.66-.806-2.075-1.885-3.835-3.64-5.589-1.754-1.754-3.514-2.833-5.589-3.64-2.007-.78-4.301-1.314-7.66-1.467C41.645.481 40.57.444 32 .444z"/><path d="M32 15.796c-8.949 0-16.204 7.255-16.204 16.204S23.051 48.204 32 48.204 48.204 40.949 48.204 32 40.949 15.796 32 15.796zm0 26.723c-5.809 0-10.519-4.709-10.519-10.519 0-5.809 4.709-10.519 10.519-10.519S42.519 26.191 42.519 32 37.809 42.519 32 42.519z"/><circle cx="48.844" cy="15.156" r="3.787"/></g></svg>