<svg xmlns="http://www.w3.org/2000/svg" viewBox="0 0 64 64"><path d="M62.254 31.33c0-3.713-3.035-6.729-6.767-6.729-1.777 0-3.376.67-4.593 1.783-4.429-3.057-10.402-5.067-17.073-5.443l2.993-9.813 9.172 1.81c.314 3.043 2.898 5.416 6.056 5.416h.054c3.363 0 6.083-2.708 6.083-6.046s-2.734-6.046-6.097-6.046h-.041a6.082 6.082 0 00-5.399 3.257l-12.26-2.413-4.21 13.808-.342.013c-6.876.295-13.055 2.332-17.593 5.456A6.729 6.729 0 007.644 24.6c-3.732 0-6.767 3.016-6.767 6.729a6.72 6.72 0 003.704 6.006 12.063 12.063 0 00-.164 1.984c.014 10.161 12.166 18.419 27.147 18.419 14.982 0 27.134-8.258 27.134-18.433 0-.67-.055-1.327-.15-1.984 2.202-1.112 3.706-3.377 3.706-5.991zM5.566 34.024a3.338 3.338 0 01-1.49-2.788 3.38 3.38 0 013.376-3.365 3.42 3.42 0 012.051.684C7.658 30.15 6.291 32 5.566 34.024zm44.221-21.717a2.262 2.262 0 012.255-2.252 2.253 2.253 0 012.255 2.252 2.261 2.261 0 01-2.255 2.252 2.252 2.252 0 01-2.255-2.252zM18.238 36.343c0-2.359 1.941-4.263 4.347-4.263s4.347 1.903 4.347 4.263-1.941 4.263-4.347 4.263-4.347-1.903-4.347-4.263zm13.328 14.96c-6.507-.026-10.389-3.82-10.553-3.981l1.722-1.662c.027.027 3.24 3.244 8.83 3.271 5.509-.027 8.776-3.244 8.817-3.271l1.722 1.662c-.163.161-4.032 3.955-10.538 3.981zm9.063-10.697c-2.406 0-4.347-1.904-4.347-4.263s1.941-4.263 4.347-4.263c2.406 0 4.347 1.903 4.347 4.263s-1.955 4.263-4.347 4.263zm16.964-6.528c-.738-2.051-2.133-3.941-4.005-5.55a3.397 3.397 0 012.078-.697 3.42 3.42 0 013.431 3.418c.013 1.18-.589 2.212-1.504 2.829z" xmlns="http://www.w3.org/2000/svg" id="social-reddit"/></svg>