<svg xmlns="http://www.w3.org/2000/svg" viewBox="0 0 64 64"><g xmlns="http://www.w3.org/2000/svg" id="watch"><path d="M57.385 14.21V7.091a.441.441 0 00-.134-.319.45.45 0 00-.322-.134h-7.107C44.635 2.98 38.465 1 31.988 1h-.002c-6.47 0-12.633 1.976-17.811 5.627H7.076a.44.44 0 00-.321.137.444.444 0 00-.133.319v7.103C-.86 24.831-.864 39.15 6.61 49.794l.001 7.115c0 .123.049.239.134.319a.447.447 0 00.322.134h7.1C19.353 61.021 25.522 63 31.998 63c6.467 0 12.629-1.974 17.813-5.624h7.109c.122 0 .239-.05.321-.134a.45.45 0 00.133-.323V49.82c7.487-10.637 7.49-24.961.011-35.61zm-7.302 35.846a25.505 25.505 0 01-18.086 7.492 25.48 25.48 0 01-18.074-7.483c-9.979-9.976-9.991-26.148.008-36.142 4.985-4.982 11.52-7.471 18.055-7.473a25.503 25.503 0 0118.083 7.489c9.982 9.973 9.99 26.145.014 36.117z"/><path d="M21.764 14.351L48.903 32 21.764 49.649"/></g></svg>