<svg xmlns="http://www.w3.org/2000/svg" viewBox="0 0 64 64"><path d="M48.767 41.627c-2.88 5.825-8.28 10.171-14.782 11.577l-4.582-2.543-4.576 2.54c-8.262-1.793-14.764-8.326-16.538-16.624l2.527-4.582-2.522-4.575c1.782-8.297 8.291-14.827 16.559-16.612l4.561 2.531 4.561-2.531c6.504 1.403 11.907 5.749 14.79 11.575a1.663 1.663 0 011.543-1.048h3.403C50.029 12.905 42.123 6.76 32.676 5.596l-2.987-2.997a.374.374 0 00-.276-.111.376.376 0 00-.272.114l-2.983 2.994C14.12 7.074 4.581 16.644 3.099 28.723L.114 31.719a.394.394 0 00-.001.551l2.982 2.992C4.565 47.356 14.11 56.94 26.158 58.421l2.971 2.982a.383.383 0 00.274.112.392.392 0 00.274-.114l2.966-2.976c9.466-1.154 17.389-7.311 21.071-15.757h-3.408a1.67 1.67 0 01-1.539-1.041zm-5.466-21.579h-8.513s.91.842.91 1.782c0 .937-2.342 14.748-2.342 14.748l-3.943-15.74-3.829 16.065s-2.364-10.245-2.713-13.995c-.09-.945.276-2.859.276-2.859h-8.1s1.414.849 1.952 3.197c.284 1.246 4.538 17.547 4.718 20.685.059 1.089-1.522 2.247-1.522 2.247h8.301s-.515-.904-.515-2.156c0-1.26 1.557-8.182 1.557-8.182s1.288 6.687 1.288 8.091c0 1.405-.265 2.247-.265 2.247h7.949s-.983-1.243-.983-2.751c0-.973 2.609-16.311 3.366-19.357.589-2.373 2.408-4.022 2.408-4.022zm11.227 9.681v-5.141h-4.527v5.141h-5.122v4.543h5.122v5.14h4.527v-5.14h5.122v-4.543h-5.122z" xmlns="http://www.w3.org/2000/svg" id="wow-add"/></svg>