<svg version="1.1" id="Layer_1" xmlns="http://www.w3.org/2000/svg" x="0" y="0" viewBox="0 0 541 520" xml:space="preserve">
  <style>
    .st0{fill:#fff}
  </style>
	<path class="st0" d="M1345 8768.9c-481-86-868-442-990-910-44-169-47-268-42-1579 3-1204 4-1232 24-1325 111-501 467-858 973-976 66-15 150-18 691-21 560-4 618-3 633 12s16 208 16 2396c0 1622-3 2386-10 2400-10 18-27 19-613 18-476-1-619-4-682-15zm905-2400v-2026l-407 5c-375 4-415 6-490 25-322 83-561 331-628 654-22 101-22 2589-1 2688 60 281 255 514 518 619 132 53 193 59 621 60l387 1v-2026z" transform="matrix(.1 0 0 -.1 0 900)"/>
	<path class="st0" d="M1431 7783.9c-63-12-159-60-210-105-105-91-157-220-149-372 4-79 9-100 41-164 47-97 118-168 215-216 67-33 84-37 171-40 79-3 107 0 160 18 217 73 348 284 311 500-43 257-287 429-539 379zm1706 994c-4-3-7-1087-7-2409 0-2181 1-2402 16-2408 27-10 803-6 899 4 406 46 764 293 959 660 25 47 58 126 75 175 63 188 61 138 61 1575 0 1147-2 1318-16 1391-99 521-496 914-1018 1004-70 12-178 15-526 15-240 0-440-3-443-7zm1068-2178c156-41 284-160 336-312 33-94 32-232-1-318-61-158-181-269-335-310-250-65-516 86-589 334-22 76-21 204 4 282 75 245 335 389 585 324z" transform="matrix(.1 0 0 -.1 0 900)"/>
</svg>
