<svg xmlns="http://www.w3.org/2000/svg" viewBox="0 0 372.4 372.6">
	<path d="M167.63 371.757c-28.7-2.7-57.7-13-82.7-29.3-20.9-13.6-25.6-19.2-25.6-30.4 0-22.5 24.7-61.8 67-106.7 24-25.5 57.5-55.4 61.1-54.6 7 1.6 63.3 56.4 84.3 82.2 33.3 40.8 48.6 74.2 40.8 89.1-5.9 11.3-42.6 33.5-69.5 42-22.2 7.1-51.4 10-75.4 7.7zm-136.5-83.1c-17.4-26.6-26.1-52.9-30.4-90.8-1.4-12.5-.9-19.7 3.2-45.4 5.1-32.1 23.3-69.1 45.3-92 9.3-9.7 10.2-10 21.6-6.1 13.8 4.7 28.6 14.9 51.5 35.6l13.4 12.1-7.3 9c-34 41.5-69.8 100.5-83.3 137-7.3 19.8-10.3 39.8-7.1 48 2.1 5.6.2 3.6-6.9-7.4zm304.9 4.6c1.7-8.4-.5-23.8-5.5-39.3-11-33.6-47.8-96.1-81.7-138.6l-10.6-13.4 11.5-10.6c15-13.8 25.5-22.1 36.7-29.1 8.9-5.5 21.6-10.4 27.1-10.4 3.4 0 15.2 12.3 24.8 25.7 14.8 20.8 25.7 46 31.2 72.2 3.6 16.9 3.9 53.2.6 70.1-2.7 13.9-8.4 31.9-14 44.1-4.2 9.1-14.5 26.9-19.1 32.7-2.3 3-2.3 3-1-3.4zm-165.3-247.8c-15.6-7.9-39.7-16.4-53-18.7-4.7-.8-12.6-1.2-17.7-1-11 .6-10.5 0 7.1-8.3 14.6-6.9 26.8-11 43.4-14.5 18.6-3.9 53.7-4 72-.1 19.8 4.2 43.1 12.9 56.3 20.9l3.9 2.4-9-.5c-17.8-.9-43.8 6.3-71.6 19.9-8.4 4.1-15.7 7.4-16.2 7.3-.5-.1-7.4-3.4-15.2-7.4z" fill="#fff"/>
</svg>
