<svg version="1.0" xmlns="http://www.w3.org/2000/svg" viewBox="211 128 279 132">
	<path d="M413.5 129.7c-8.4 1.8-9.5 2.6-9.5 6.8 0 5.1 5.5 6 14.7 2.5 4.9-1.8 6.3-1.9 20.4-1 10 .7 16.4 1.6 18.6 2.7 4.2 1.9 6.8 6.8 8.4 15.6 1.4 7.4.3 11.8-3.5 14.2-2.6 1.6-12.7 2.7-27.6 3-6.3.1-14.2.5-17.5.9-11.4 1.3-16.2-4.7-15.1-19 .8-10.5-.4-14.4-4.5-14.4-2 0-3.4.8-4.6 2.7-1.6 2.4-1.8 4.8-1.5 17.1l.2 14.5 3.2 3.6c4.6 5.3 7.4 6.5 14.6 6.3 4.5-.1 6.2.2 6.2 1.2 0 1.6-3.6 4.9-7.5 6.8-1.6.8-3.9 1.9-5 2.5-4.9 2.6-9.5 3.7-16.6 4.1-5.9.3-8.2.8-9.8 2.3-2.6 2.4-2.7 5.1-.3 7.2 2.8 2.5 7.4 2.2 22.2-1.5 11.2-2.9 26-13.6 30.7-22.2 1.1-2.2 1.7-2.3 18.4-2.4 15.8-.2 17.5-.4 21.2-2.4 7-3.9 8.2-6.6 8.1-17.1 0-11.3-1.4-19-4.2-24.2-2.4-4.3-8.3-8.5-12-8.5-1.3 0-3.1-.4-4-.9-.9-.5-9.6-1.1-19.2-1.4-13.7-.5-19-.3-24.5 1zm-180.2 5.5c-1.3.6-2.3 1.5-2.3 2s-1.7 3-3.8 5.6c-3.2 4.1-4.9 7.1-10.4 18.4-2.1 4.4.1 9.9 5.8 14.5 2.7 2.2 3.7 3.7 3.7 5.9 0 3.8-2.4 9.8-5.1 12.6-3.4 3.7-4.3 7.2-3.2 13 1.3 6.9 5.3 10.8 11 10.8 2.1 0 4.2.4 4.5 1 .8 1.3 8.6 1.3 12 0 3.6-1.4 14.8-10.9 15.8-13.4 1.7-4.5-1.2-15.3-6-21.5-5-6.6-4.2-10.6 2.7-14.1 3.8-2 4-2.2 4-6.9 0-4.1-.4-5.3-2.5-7-3.4-2.6-7.5-3.4-10.8-2.2-3.1 1.2-3.4 2.7-1.1 5.2 1.4 1.5 1.5 2.3.5 4.7-1.7 4.1-6.5 9-9.4 9.7-3.1.8-7.4-1.2-9.8-4.5-1.7-2.3-1.8-2.8-.3-6.9.8-2.5 2.4-5.7 3.5-7.2 1-1.5 1.9-3.1 1.9-3.6 0-2 3.7-4.2 9.4-5.7 3.2-.8 6.3-1.9 6.9-2.5 1.7-1.7-.2-6-3.3-7.6-3.3-1.7-10.4-1.9-13.7-.3zm13.8 50.9c5.2 5.2 6.2 16.5 1.9 20.4-5 4.5-18 3.4-21-1.8-1.3-2.4-1.2-2.9.9-6.9 4.6-8.1 10.4-13.6 14.9-13.8.6 0 2.1.9 3.3 2.1z" fill="#c1292e"/>
	<path d="M299.5 143.1c-2.2.4-8.5.9-14 1-11.4.3-12.7.9-15.6 7.7-2.6 6.1-2.4 12.3.6 19.1 2.5 5.5 2.6 6.2 2.2 23.1-.2 9.6-.9 19.7-1.6 22.5-.6 2.7-1.6 6.8-2.1 9s-1.9 6.3-3.1 9l-2.2 5-1.2-6.6c-.8-3.7-1.9-7.6-2.7-8.8-1.4-2.3-5.7-2.8-7.6-.9-4.1 4.1 3.2 19.1 8.3 17.2 1.5-.6 1.7-.4 1.2 1-2.5 6.5-.9 11.6 3.7 11.6 6.2 0 10.1-8.1 13.2-27 .8-5.2 1.9-9.9 2.4-10.4s1.9-.2 3.4.8c2.4 1.5 2.6 2.3 2.6 8.6 0 8.7 1 11.4 5 13 2.7 1.1 3.4 1.1 4.8-.3 1.4-1.4 1.4-2.2.4-5-1.5-4-1.5-9-.2-13.7 1.3-4.9 5.4-6.3 18.4-6.2 10.3.1 12.6-.6 12.6-3.8 0-3.4-4.7-6-10.9-6-6.6 0-8.1-1.1-8.1-6 0-5.1 1.4-6 9.5-6 6.6 0 7.3.2 9.9 2.9l2.8 2.9.3 25.9c.2 14.2.8 26.9 1.3 28.3 3 7.9 12.2 5.4 12.2-3.2 0-2.8-1.7-12.4-3.7-21.1-1.3-5.5-1.5-11.5-1.1-32.5.4-24 .6-26.1 2.6-30.3 3.3-6.7 2.9-8.5-2.9-14.2-4.5-4.4-5.8-5.1-11.7-6.2-7.2-1.4-22.2-1.6-28.7-.4zm24.2 10.2c1.8.9 4.3 3.2 5.7 5 2.3 3 2.6 4.3 2.6 11.9 0 10.9-.8 12-8 11.6-5.1-.3-5.5-.5-5.8-3-.2-1.6.7-4.5 2.2-7.1 4.2-7 3.2-13.7-1.9-13.7-3.9 0-5.6 3.2-6.2 11.5-.5 6.5-1 8-3.3 10.6-2.2 2.2-3.7 2.9-6.7 2.9-2.1 0-6.7.3-10.3.6-6.2.6-6.7.5-9.6-2.2-2.7-2.6-3.2-3.8-3.7-10.2-.6-5.6-.4-8.1.8-10.5 1.7-3.5 6.4-6.7 10-6.7 1.2 0 3.8-.6 5.6-1.4 4.8-2.1 24.2-1.6 28.6.7zm-24.9 41c1.7 1.3 1.5 7.2-.2 8.6-.8.7-4.1 1.5-7.3 1.8-3.2.3-6.6 1-7.5 1.4-2.4 1.3-2.9-.2-1.7-4.7 1.5-5.3 3.4-7.2 8.3-8.2 4.2-.9 6.2-.6 8.4 1.1zm114.6-41.2c-.8.8-1.4 2.8-1.4 4.3 0 3.5 3 4.6 9.5 3.7 2.8-.4 10.4-.7 17-.6 9.5.2 12.4-.1 13.8-1.3 2.2-1.9 2.2-4.5-.1-6.5-2.6-2.4-36.6-2-38.8.4zm25.3 35.9c-1.2 1.7-1.3 2.9-.6 4.8.5 1.3.8 2.5.7 2.6-.2.1-2.8 2-5.8 4.3-3 2.2-8 5.6-11 7.4-3 1.8-8.7 5.4-12.7 8-6.5 4.3-21.1 9.9-25.7 9.9-3.4 0-8.5 3.9-8.6 6.6 0 .5.9 2 2 3.2 2.4 2.6 8 2.9 12.1.8 1.5-.7 5.1-2.2 8-3.1 3-1 6.8-2.6 8.4-3.6 1.7-1 4.4-2.6 6-3.5 1.7-.9 4.4-2.7 6-4.1 3.8-3 4.2-3.3 9-6.8 6-4.4 20.3-16.4 21-17.5.9-1.5 11.1-1.2 12.2.2.6.7 1.5 2.6 2 4.3.9 2.8 1.3 3 6.1 3 8.3.1 12.8 5.8 12 15.2-1.4 16.3-24.5 30.7-37.3 23.2-4.3-2.5-6.5-1.9-6.5 1.8 0 3.5 5.4 13 7.7 13.6 5.9 1.6 7.6 1.5 14.2-.7 10.2-3.4 15.7-6.9 23.7-15.1 7.6-7.7 7.6-7.7 9-21.1.6-5-.4-9.3-3.7-16.9-1.8-4.1-8.3-10.2-15.2-14.1-5.5-3.2-6.5-3.4-18.6-4-12.5-.6-12.9-.6-14.4 1.6z" fill="#c1292e"/>
	<path d="M453.5 211.2c-1.1.6-4.4 3.1-7.3 5.4-2.9 2.4-11.8 8.6-19.7 13.9-14.3 9.5-27.2 15.4-36.8 17-7.2 1.2-10 7.5-5 11.5 2.3 1.8 3.6 2.1 6.8 1.5 2.2-.3 4.9-1.2 6-1.9 1.1-.7 4.3-2 7-2.9 5.4-1.8 20.3-10.3 23.8-13.5 1.2-1.1 3.5-2.2 5.2-2.4 2-.2 3.1-1 3.5-2.5.5-2 2.6-4 17.4-16.7 4.7-3.9 5.7-5.3 5.4-7.5-.3-3-3.1-3.8-6.3-1.9zm-235.8 19.1c-3.3 5.2-5.3 11-6.4 18.8-.4 3-.1 3.9 1.7 5.2 3.6 2.5 5.7 1 9.5-6.9 3.3-6.7 3.6-8.1 3.3-14.7-.3-6.5-.5-7.2-2.5-7.5-1.7-.3-2.9.9-5.6 5.1zm18.7-1.9c-1.6 1.2-2 2.9-2.2 9.8-.4 10 1.3 16.1 4.7 16.6 3.7.6 5.6-5.8 5.3-18.1-.2-4.2-.7-6.2-2.2-7.7-2.4-2.4-3-2.4-5.6-.6zm74.3 2c-6.8 1.5-8 2.4-7.5 6.2l.3 2.9h8c10.8 0 14.4-1.3 14.5-5.3 0-2.2-3.9-5.2-6.7-5.1-1.6 0-5.4.6-8.6 1.3z" fill="#c1292e"/>
</svg>
